<?xml version="1.0" standalone="no"?>
<!DOCTYPE svg PUBLIC "-//W3C//DTD SVG 20010904//EN"
 "http://www.w3.org/TR/2001/REC-SVG-20010904/DTD/svg10.dtd">
<svg version="1.0" xmlns="http://www.w3.org/2000/svg"
 width="7000.000000pt" height="2800.000000pt" viewBox="0 0 7000.000000 2800.000000"
 preserveAspectRatio="xMidYMid meet">
<metadata>
Created by potrace 1.16, written by Peter Selinger 2001-2019
</metadata>
<g transform="translate(0.000000,2800.000000) scale(0.100000,-0.100000)"
fill="#000000" stroke="none">
<path d="M0 14000 l0 -14000 35000 0 35000 0 0 14000 0 14000 -35000 0 -35000
0 0 -14000z m40204 1435 c59 -425 179 -1413 227 -1883 l12 -113 -131 -257
c-206 -406 -358 -742 -447 -986 l-43 -121 -38 -722 c-21 -398 -35 -725 -32
-729 4 -3 55 36 115 88 59 51 128 108 151 127 l44 34 51 -26 c192 -100 660
-364 782 -442 30 -19 57 -35 60 -35 3 0 56 -32 118 -72 586 -375 931 -611
1270 -870 60 -46 115 -87 123 -91 25 -14 443 -346 593 -470 206 -172 555 -474
701 -606 730 -665 1503 -1476 2075 -2176 49 -60 95 -116 102 -123 7 -7 33 -40
58 -73 l46 -59 152 -2 c151 -1 150 -1 -68 -9 -638 -22 -1162 -72 -1690 -160
-157 -26 -422 -79 -479 -96 -18 -5 -19 -14 -13 -177 20 -571 210 -1237 503
-1756 17 -30 43 -77 58 -105 l27 -50 -30 35 c-107 125 -320 530 -412 783 -17
49 -33 86 -35 84 -3 -2 0 -15 4 -28 6 -15 5 -34 -4 -55 -46 -111 -65 -356 -35
-474 22 -88 83 -210 140 -278 37 -44 46 -60 30 -51 -71 38 -3430 59 -5439 35
-410 -5 -757 -9 -772 -8 -16 1 -28 -3 -28 -8 0 -15 -78 -5 -97 12 -18 16 -440
162 -496 172 -22 4 -557 178 -911 296 l-29 9 29 -32 c16 -17 40 -43 53 -57 71
-76 260 -386 343 -565 59 -127 132 -339 143 -418 l7 -47 -770 0 c-693 0 -770
2 -776 16 -9 23 -7 196 4 393 6 96 9 175 8 176 -2 2 -280 -3 -618 -11 -607
-13 -849 -15 -820 -8 13 3 945 59 1332 80 138 7 144 6 311 -71 33 -14 61 -24
64 -21 3 3 -41 63 -98 135 -75 94 -110 130 -126 131 -33 0 -37 18 -6 23 25 4
25 4 -7 7 l-35 3 35 7 c30 6 26 7 -25 8 -33 0 -52 -2 -42 -5 28 -7 19 -23 -14
-23 -16 0 -28 -4 -24 -9 3 -6 18 -6 38 0 17 5 33 9 34 9 1 0 0 -6 -3 -14 -3
-8 -11 -13 -18 -10 -7 3 -26 0 -42 -6 -20 -8 -30 -8 -32 -1 -5 16 -239 15
-244 -1 -3 -7 -29 -11 -69 -11 -43 0 -50 -1 -21 -4 59 -6 43 -23 -21 -23 -37
0 -48 3 -37 10 11 7 6 10 -20 9 -29 0 -32 -2 -15 -10 16 -7 12 -8 -17 -6 -36
3 -38 1 -38 -25 0 -26 -3 -28 -40 -28 -36 0 -40 3 -40 25 0 25 -1 25 -80 25
-64 0 -80 -3 -80 -15 0 -13 -17 -14 -120 -8 -108 5 -120 4 -120 -10 0 -14 -12
-17 -80 -17 -47 0 -80 -4 -80 -10 0 -5 -17 -10 -38 -10 -30 0 -42 5 -51 23
-10 20 -11 19 -7 -13 3 -19 2 -29 -1 -22 -2 6 -9 10 -14 6 -5 -3 -9 -2 -9 3 0
16 117 322 130 338 4 6 16 36 27 67 15 42 18 60 9 69 -8 9 -7 10 8 5 13 -5 17
-2 12 9 -3 8 0 14 6 12 7 -1 14 6 16 16 3 14 -4 17 -42 17 -27 0 -46 -5 -46
-11 0 -8 -4 -8 -15 1 -8 6 -20 8 -26 4 -9 -5 -7 -10 7 -15 14 -5 10 -7 -14 -6
l-34 2 37 32 c21 18 54 41 73 51 37 19 41 25 103 142 72 137 147 239 255 345
45 45 103 92 128 104 25 13 44 27 42 30 -2 3 10 7 26 8 17 1 35 7 42 12 9 8
496 17 496 9 0 -2 -20 -59 -43 -127 l-43 -124 -109 -39 c-60 -22 -111 -41
-114 -43 -2 -2 7 -9 20 -15 39 -16 621 -211 623 -208 1 2 48 145 106 318 57
173 120 358 141 410 116 298 148 379 167 420 11 25 34 79 50 120 17 41 44 105
61 142 17 37 31 73 31 80 0 10 -28 12 -121 10 -74 -2 -125 1 -133 7 -24 20
-24 -1 0 -46 13 -25 24 -62 24 -82 -1 -72 -16 -87 -150 -158 -69 -36 -127 -68
-130 -72 -13 -16 -72 -52 -77 -47 -4 3 0 6 7 6 7 0 11 2 8 5 -8 8 -39 -6 -33
-15 6 -10 -54 -55 -62 -46 -3 3 -13 -2 -22 -12 -29 -32 -124 -95 -118 -78 6
14 3 15 -14 5 -12 -6 -33 -8 -47 -5 -18 5 -22 4 -13 -3 16 -10 7 -31 -14 -31
-7 0 -15 5 -17 12 -6 16 -27 1 -38 -28 -5 -13 -16 -24 -25 -24 -18 0 -20 16
-2 23 6 3 8 6 2 6 -5 0 -17 -4 -25 -9 -13 -9 -13 -11 0 -20 11 -8 8 -10 -15
-8 -16 2 -30 -1 -30 -7 0 -11 10 -11 50 -1 40 10 31 -17 -12 -37 -35 -16 -36
-17 -8 -12 29 5 29 5 10 -10 -11 -9 -30 -14 -42 -10 -16 4 -25 -1 -33 -15 -8
-14 -8 -20 0 -20 6 0 8 -5 5 -10 -11 -17 -37 18 -30 40 5 14 2 20 -9 20 -9 0
-16 5 -16 10 0 10 -38 -7 -50 -21 -3 -4 -15 -9 -28 -13 -12 -4 -19 -12 -16
-18 4 -6 9 -6 13 -1 8 12 74 43 80 38 2 -3 -2 -11 -9 -20 -7 -8 -8 -15 -2 -15
5 0 12 -6 15 -12 3 -10 -13 -13 -60 -14 -51 -1 -63 1 -59 12 3 8 3 14 0 14
-12 0 -54 -33 -54 -43 0 -7 4 -7 12 1 16 16 38 15 38 -2 0 -7 -10 -16 -22 -19
-13 -2 -30 -7 -38 -9 -8 -3 -12 -3 -7 -1 9 6 9 23 -1 23 -4 0 -19 -11 -34 -25
-24 -22 -36 -25 -108 -25 l-81 0 -79 -53 c-44 -30 -77 -57 -72 -62 4 -4 2 -5
-5 -1 -11 6 -50 -13 -79 -39 -6 -5 -37 -28 -69 -50 -32 -22 -66 -47 -76 -57
-9 -9 -20 -14 -22 -11 -7 6 -59 -27 -70 -44 -4 -7 -12 -13 -18 -13 -15 0 -53
-39 -46 -46 4 -4 1 -14 -5 -22 -9 -11 -13 -74 -13 -227 0 -166 -3 -211 -13
-208 -23 9 -111 137 -159 230 -41 81 -49 91 -62 79 -9 -7 -20 -15 -26 -17 -18
-7 -130 -84 -133 -91 -2 -5 -8 -8 -13 -8 -5 0 -41 -22 -80 -49 -39 -28 -76
-52 -82 -54 -7 -2 -9 -7 -6 -11 3 -3 52 12 109 33 57 22 109 37 116 34 10 -3
8 -14 -5 -46 -43 -99 -87 -162 -179 -252 -59 -59 -182 -150 -182 -135 0 4 6
10 13 13 6 2 -4 4 -23 4 -19 0 -29 -2 -22 -5 6 -2 12 -8 12 -13 0 -15 -22 -10
-43 8 -20 18 -20 17 -13 -12 4 -18 3 -25 -2 -17 -7 10 -77 12 -335 10 -293 -3
-355 0 -314 15 6 2 9 8 5 12 -4 4 -14 0 -22 -8 -9 -8 -42 -28 -73 -44 -32 -15
-62 -33 -68 -40 -5 -7 -58 -37 -117 -68 -84 -43 -116 -55 -152 -55 -34 0 -46
4 -46 15 0 13 -20 15 -120 15 l-120 0 0 -25 c0 -22 -4 -25 -40 -25 -33 0 -40
3 -40 20 0 17 -7 20 -40 20 -33 0 -40 3 -40 20 0 17 -7 20 -40 20 -22 0 -40 5
-40 10 0 6 -47 10 -120 10 -73 0 -120 -4 -120 -10 0 -6 -60 -10 -160 -10 -153
0 -160 1 -160 20 0 19 -7 20 -117 20 -83 0 -126 -4 -145 -14 -29 -16 -39 -3
-18 22 7 9 7 9 -2 2 -7 -5 -18 -10 -25 -10 -15 0 67 119 82 120 6 0 27 16 47
34 21 19 51 43 68 52 29 18 40 47 21 58 -5 3 -12 18 -15 33 -4 16 -15 46 -25
68 -48 106 -60 133 -74 175 -8 25 -27 71 -41 102 -14 31 -26 62 -26 67 0 6 -5
11 -11 11 -6 0 -9 9 -6 20 3 11 2 18 -2 16 -4 -3 -13 17 -20 44 -7 28 -17 50
-22 50 -5 0 -9 6 -9 13 0 22 -49 139 -72 172 l-21 32 -22 -25 -22 -26 5 32 c4
29 12 37 36 33 5 -1 6 6 2 15 -3 9 -9 27 -12 40 -7 26 -24 33 -24 9 0 -8 5
-15 10 -15 17 0 11 -29 -10 -50 -12 -12 -33 -20 -55 -20 l-35 0 0 50 c0 56 5
54 -110 53 l-55 -1 45 7 45 8 -45 3 c-39 2 -34 4 40 15 l85 12 -97 2 c-56 0
-99 -3 -103 -9 -4 -6 -23 -9 -43 -8 -20 1 -59 0 -87 -2 -40 -3 -30 -5 45 -10
94 -6 93 -6 -47 -8 -78 -1 -150 -5 -160 -9 -10 -3 -14 -2 -10 2 4 5 29 12 55
16 26 4 0 5 -58 2 -58 -3 -108 -10 -111 -16 -4 -5 -15 -6 -26 -3 -11 3 -82 1
-159 -5 -189 -14 -236 -18 -399 -29 -536 -39 -866 -65 -1045 -82 -63 -6 -134
-10 -156 -10 -38 1 -41 -1 -37 -21 4 -17 3 -19 -6 -7 -25 36 -20 -12 19 -187
23 -103 44 -191 47 -196 3 -4 11 -40 18 -80 7 -40 22 -112 33 -162 11 -49 27
-135 37 -190 9 -55 19 -111 22 -125 3 -14 7 -34 8 -45 2 -11 6 -30 10 -42 6
-19 4 -23 -14 -23 -17 0 -20 4 -15 30 4 16 3 51 -1 77 l-8 48 -13 -40 c-7 -22
-12 -51 -12 -65 0 -20 1 -21 5 -5 8 34 23 41 23 11 0 -25 -19 -56 -34 -56 -3
0 -6 18 -6 40 l0 40 -280 0 -280 0 0 25 c0 23 -4 25 -40 25 -28 0 -40 4 -40
14 0 10 -13 16 -37 19 -25 2 -15 4 27 5 206 6 248 13 285 53 22 22 31 26 38
17 6 -9 7 -8 3 5 -3 9 0 30 6 45 6 15 10 47 9 72 -1 33 1 41 8 30 6 -8 11 -11
11 -6 0 5 -6 17 -14 25 -8 9 -19 57 -26 106 -16 125 -90 488 -139 681 -116
462 -283 967 -413 1254 -6 14 -12 27 -13 30 -30 125 -353 770 -512 1022 -13
21 -20 38 -16 38 5 0 37 -9 73 -21 36 -11 92 -29 125 -39 33 -10 193 -64 355
-120 162 -56 303 -103 312 -105 9 -2 25 -8 35 -13 21 -11 137 -54 228 -83 33
-11 68 -24 78 -29 13 -8 17 -7 17 5 0 19 -37 40 -42 23 -3 -8 -9 -8 -24 0 -16
10 -17 11 -2 12 36 0 24 15 -12 15 -21 0 -36 -3 -34 -7 3 -4 -2 -5 -11 -2 -24
10 -9 17 38 19 47 2 117 -36 117 -64 0 -14 2 -14 10 -1 8 12 11 11 16 -8 4
-15 10 -19 18 -13 6 5 31 9 56 8 35 0 40 -1 22 -8 -12 -5 -30 -6 -40 -3 -14 5
-15 4 -1 -5 9 -6 29 -7 52 -1 20 4 37 4 37 0 0 -11 -64 -22 -97 -16 -22 4 -20
3 7 -7 19 -7 56 -23 82 -35 26 -12 53 -22 60 -22 8 0 22 -6 33 -13 32 -21 77
-38 70 -27 -9 14 1 12 17 -3 7 -7 36 -21 63 -31 28 -10 73 -29 100 -42 28 -12
77 -34 110 -47 61 -25 373 -161 435 -190 19 -9 64 -29 100 -45 198 -90 392
-181 689 -323 90 -44 165 -78 167 -76 2 2 -215 298 -243 332 -11 13 -211 269
-243 310 -42 55 -200 245 -275 331 -38 44 -97 111 -130 149 -311 357 -787 841
-1130 1150 -48 44 -93 85 -99 90 -6 6 -45 39 -86 75 -41 36 -77 67 -80 70 -12
12 -90 78 -127 108 -23 19 -52 43 -65 54 -121 108 -582 460 -765 586 -26 18
-82 56 -123 85 -41 29 -135 90 -208 136 l-132 84 -53 -7 c-69 -9 -421 -80
-556 -112 -388 -91 -739 -197 -1096 -330 -294 -109 -347 -131 -643 -263 -113
-50 -548 -268 -634 -318 -282 -162 -611 -367 -718 -448 -23 -17 -34 -33 -33
-48 1 -15 0 -16 -3 -4 -3 9 -8 17 -10 17 -6 0 -57 -33 -64 -41 -3 -3 -30 -22
-60 -42 -30 -21 -49 -37 -43 -37 7 0 15 5 18 10 4 6 11 8 16 4 6 -3 16 2 24
12 7 11 17 15 21 11 5 -4 2 -12 -5 -16 -10 -6 -7 -13 14 -27 15 -11 37 -28 48
-39 20 -18 20 -20 4 -23 -24 -5 -5 -37 34 -57 28 -15 30 -19 27 -68 -2 -43 -6
-51 -20 -49 -12 2 -18 -4 -18 -18 0 -11 7 -20 16 -20 8 0 13 4 9 9 -3 5 4 12
15 16 12 4 17 11 13 18 -4 7 1 5 12 -3 15 -13 16 -15 2 -18 -17 -3 -32 -32
-17 -32 6 0 10 5 10 10 0 6 10 10 23 10 12 0 41 9 64 19 23 11 43 17 46 15 2
-3 17 1 33 7 16 7 36 13 44 14 8 2 60 14 115 28 263 68 438 88 827 94 349 6
519 -2 848 -39 192 -22 222 -35 84 -37 -179 -3 -606 -66 -794 -117 -194 -52
-344 -202 -395 -394 -11 -43 -15 -125 -15 -365 1 -467 28 -1686 39 -1697 3 -4
69 0 146 8 92 10 178 13 250 9 174 -10 175 -10 212 -85 42 -84 123 -290 162
-410 62 -194 89 -322 137 -658 3 -18 9 -30 14 -27 5 3 10 -12 12 -32 2 -24 8
-37 16 -36 7 2 12 -7 12 -22 0 -14 -4 -25 -10 -25 -5 0 -10 8 -10 17 0 9 -2
14 -6 11 -3 -3 -7 -68 -9 -144 -2 -77 -7 -161 -10 -189 -3 -27 -10 -95 -16
-150 -13 -127 -51 -320 -90 -452 -44 -153 -152 -413 -165 -400 -3 3 8 56 25
119 49 183 83 359 106 548 3 25 8 56 10 70 6 29 15 163 22 337 9 215 -24 563
-78 813 -58 269 -173 580 -221 596 -42 13 -201 19 -323 11 -204 -13 -679 -88
-1020 -162 l-30 -6 25 16 c14 9 18 14 9 12 -243 -73 -593 -200 -844 -307 l-99
-43 -95 12 c-278 33 -670 58 -1061 67 l-290 7 2 74 c2 41 6 77 10 79 5 3 8 14
8 25 0 11 -4 18 -9 14 -5 -3 -12 -1 -16 5 -3 5 1 10 9 10 9 0 16 9 16 20 0 17
-7 20 -44 20 -38 0 -45 3 -49 23 -2 12 -5 0 -6 -28 -1 -45 -3 -48 -15 -32 -11
14 -15 15 -19 5 -3 -7 -4 1 -1 17 2 17 15 118 29 225 14 107 30 218 35 245 5
28 18 111 30 185 11 74 23 149 25 166 4 25 -1 38 -26 65 -29 31 -32 32 -39 15
-6 -19 -7 -19 -27 1 -14 14 -19 29 -16 47 3 14 1 26 -3 26 -11 0 -34 -48 -34
-69 0 -8 -4 -28 -10 -45 -23 -74 -133 -674 -147 -804 -3 -28 -9 -52 -14 -52
-5 0 -9 -19 -9 -41 0 -36 -2 -40 -15 -29 -11 9 -14 22 -10 41 8 34 -12 48 -24
17 -8 -20 -10 -17 -10 20 -1 36 -4 42 -23 42 -35 0 -58 29 -58 73 0 43 -31 87
-62 87 -10 0 -18 5 -18 11 0 7 -12 23 -27 38 -24 22 -25 26 -11 29 26 5 6 37
-35 59 -18 9 -26 18 -19 20 19 7 14 24 -15 51 -26 24 -26 26 -8 32 19 7 18 9
-11 37 -26 23 -31 35 -27 58 4 19 2 26 -5 21 -6 -4 -20 2 -32 14 -16 16 -20
33 -20 87 -1 44 -6 75 -15 87 -14 19 -15 19 -15 -7 0 -19 -4 -25 -15 -21 -8 4
-15 15 -15 25 0 10 -4 19 -10 19 -5 0 -10 18 -10 40 0 29 -4 40 -15 40 -12 0
-15 16 -15 80 0 47 -4 80 -10 80 -5 0 -10 18 -10 40 0 29 -4 40 -15 40 -12 0
-15 13 -15 59 0 102 -12 181 -26 181 -11 0 -14 38 -12 203 1 111 3 183 5 160
2 -24 8 -43 12 -43 8 0 21 192 21 322 0 60 3 78 14 78 10 0 16 22 21 80 6 69
10 80 26 80 15 0 19 7 19 40 0 22 5 40 10 40 6 0 10 9 10 20 0 11 4 20 9 20
13 0 51 82 51 109 0 12 11 32 25 45 25 24 33 46 16 46 -17 0 53 116 74 124 8
3 15 16 15 30 0 13 10 30 23 39 12 8 31 32 42 53 35 67 65 107 94 125 16 10
32 27 36 38 3 12 15 26 26 31 10 6 19 20 19 30 0 12 46 66 115 135 112 113
116 115 160 115 41 0 45 2 45 24 0 14 11 33 25 44 14 11 25 27 25 35 0 22 28
29 32 9 3 -13 22 2 75 56 40 39 74 72 77 72 2 0 6 -8 8 -17 3 -14 10 -9 27 19
24 40 51 57 51 32 0 -24 37 1 57 39 9 18 18 26 20 20 3 -7 20 -13 40 -13 27 0
43 8 73 40 34 35 44 40 84 40 42 0 46 2 46 25 0 23 4 25 40 25 29 0 40 4 40
15 0 8 5 15 11 15 7 0 22 11 35 25 18 20 33 25 69 25 25 0 45 5 45 11 0 6 7
17 15 25 13 14 15 14 15 0 0 -8 -7 -21 -15 -30 -8 -8 -15 -24 -15 -35 0 -12
-4 -21 -10 -21 -5 0 -13 -18 -16 -40 -4 -22 -10 -40 -13 -40 -4 0 -13 -17 -20
-37 -8 -21 -29 -70 -47 -110 -19 -39 -34 -76 -34 -82 0 -6 -4 -11 -10 -11 -5
0 -10 -13 -10 -29 0 -16 -7 -34 -15 -41 -9 -7 -13 -15 -11 -17 3 -3 0 -17 -5
-31 -8 -22 -8 -23 6 -12 17 14 21 0 5 -16 -7 -7 -6 -11 5 -11 16 0 21 32 5 42
-5 3 -6 13 -3 21 5 14 9 12 20 -7 14 -24 14 -24 10 -1 -3 12 -1 22 4 22 5 0 9
-10 9 -22 0 -33 15 -55 23 -34 3 8 1 18 -4 22 -6 4 2 19 20 36 17 17 31 35 31
40 0 38 262 576 357 733 7 11 15 27 19 35 55 114 293 474 421 635 89 112 569
601 723 735 47 41 87 77 90 81 11 14 236 189 327 255 225 164 549 362 719 440
106 48 105 42 -1 -14 -199 -104 -382 -227 -620 -416 -163 -130 -249 -208 -460
-420 -226 -226 -475 -515 -605 -701 -14 -19 -33 -45 -43 -57 -15 -19 -175
-258 -253 -378 -28 -45 -102 -166 -124 -205 -9 -16 -28 -50 -42 -75 -14 -25
-35 -63 -48 -85 -57 -100 -240 -474 -305 -625 -21 -47 -48 -109 -61 -138 -27
-59 -28 -62 -15 -62 5 0 12 12 16 27 3 15 15 39 26 54 10 15 19 32 19 37 0 15
53 116 65 124 5 4 12 2 14 -3 2 -6 -3 -15 -10 -20 -10 -6 -11 -9 -1 -9 6 0 12
-7 12 -15 0 -12 16 -15 80 -15 73 0 80 -2 80 -20 0 -17 7 -20 40 -20 36 0 46
-7 113 -73 41 -40 76 -79 80 -87 3 -9 6 -4 6 12 1 35 24 28 41 -12 14 -35 40
-48 40 -20 0 14 20 0 75 -55 41 -40 75 -76 75 -79 0 -2 -8 -6 -17 -8 -15 -3
-15 -4 1 -21 19 -19 41 -13 32 9 -3 8 0 11 10 7 16 -6 19 -23 4 -23 -14 0 -12
-28 3 -33 8 -3 6 -10 -8 -23 -25 -23 2 -7 30 18 11 10 29 25 40 34 11 8 14 12
6 8 -9 -5 -12 -3 -7 5 4 6 11 9 16 6 5 -3 55 29 112 72 134 100 455 317 638
430 300 186 800 453 1090 582 52 24 109 49 125 56 312 141 784 315 1162 429
387 117 687 188 1106 261 18 4 48 -5 90 -26 74 -38 241 -134 279 -160 14 -11
28 -19 31 -19 2 0 46 -28 98 -62 565 -370 1157 -894 1851 -1638 69 -74 145
-155 169 -180 269 -277 650 -737 939 -1133 274 -375 310 -422 322 -419 7 2 21
6 32 8 17 3 17 2 2 -14 -12 -14 -13 -21 -4 -30 7 -7 9 -12 5 -12 -3 0 21 -46
55 -102 128 -219 408 -753 448 -858 7 -19 21 -46 30 -60 9 -14 26 -47 37 -75
12 -27 48 -108 79 -180 31 -71 76 -179 101 -240 24 -60 50 -123 57 -140 8 -16
35 -87 62 -157 l48 -128 45 0 c101 -1 1397 62 1414 69 16 5 4 18 -62 70 -84
66 -159 147 -237 257 l-46 64 -445 0 c-384 0 -444 2 -440 14 8 20 99 158 153
231 24 33 65 89 91 125 58 80 201 224 306 308 43 34 81 62 85 62 4 0 7 111 8
248 0 171 5 278 16 347 8 55 14 101 13 103 -2 2 -264 10 -582 18 -837 21 -852
22 -903 39 l-45 15 43 -6 42 -6 0 46 0 46 -40 0 c-36 0 -40 3 -40 25 0 14 -4
25 -10 25 -5 0 -10 -7 -10 -16 0 -8 -4 -12 -10 -9 -5 3 -10 17 -10 31 0 30
-20 32 -21 2 l0 -23 -16 23 c-8 12 -22 22 -29 22 -10 0 -14 13 -14 40 0 22 -4
40 -10 40 -5 0 -10 18 -10 40 0 22 5 40 10 40 18 0 10 21 -19 51 -23 23 -39
29 -70 29 l-41 0 0 40 c0 22 -4 40 -10 40 -5 0 -10 18 -10 40 0 54 -20 51 -22
-2 l-1 -43 -4 43 c-3 33 -8 42 -23 42 -15 0 -20 -9 -23 -42 -2 -24 -4 -6 -5
40 -2 81 -2 82 23 82 l25 0 0 123 c0 67 -5 129 -10 137 -8 13 -10 12 -10 -2 0
-10 -7 -18 -15 -18 -9 0 -15 9 -15 24 0 13 -7 29 -15 36 -13 10 -15 9 -15 -9
0 -20 -1 -20 -20 -4 -27 24 -25 33 7 33 14 0 24 2 22 5 -3 2 -124 7 -269 10
-146 4 -270 8 -276 10 -6 2 -55 63 -108 137 -123 169 -125 172 -225 303 -82
106 -191 245 -201 255 -22 22 -68 89 -64 93 3 3 152 6 332 7 540 4 689 11 432
20 l-165 6 165 3 c103 1 158 6 145 11 -15 7 -16 9 -4 9 9 1 19 10 22 21 6 24
27 27 27 3 0 -14 4 -12 23 7 22 25 22 25 25 3 3 -20 5 -20 34 9 29 29 32 30
39 12 6 -16 8 -14 8 9 1 18 15 41 41 67 l40 40 1 -52 c0 -45 2 -50 12 -34 7
11 23 31 36 45 23 24 25 24 31 6 6 -18 8 -18 32 8 28 30 48 35 48 12 0 -28 41
-15 53 17 3 9 29 27 56 39 34 14 51 27 51 39 0 10 7 20 15 24 10 3 15 -1 15
-12 0 -11 3 -13 8 -5 4 6 25 18 47 26 22 8 48 18 58 22 12 5 17 3 17 -9 0 -21
10 -20 26 2 8 9 14 12 14 5 0 -9 8 -9 33 -1 17 6 36 15 42 19 5 5 17 9 27 9
10 0 18 7 18 15 0 15 16 20 58 16 15 -1 22 4 22 15 0 12 6 15 21 11 27 -7 69
12 63 28 -3 8 8 14 30 18 33 5 44 11 81 45 8 7 23 12 34 10 11 -2 31 11 51 32
30 32 33 33 40 15 6 -18 8 -18 32 8 22 24 33 27 94 28 42 1 73 7 82 15 17 18
32 18 32 1 0 -10 17 -6 58 14 31 16 62 33 69 39 7 5 29 10 51 10 21 0 43 5 50
12 9 9 12 9 12 0 0 -7 12 -4 33 8 21 13 50 20 85 20 30 0 67 7 85 17 18 9 50
16 72 16 l40 0 -37 4 c-26 3 -38 9 -38 20 0 13 11 14 78 8 42 -4 79 -11 80
-16 5 -12 32 -12 32 0 0 4 27 18 60 30 32 12 62 26 65 31 4 6 24 10 46 10 23
0 39 5 39 12 0 8 32 9 120 5 94 -5 120 -4 120 6 0 10 37 13 157 14 100 1 159
6 161 13 2 5 21 10 43 10 21 0 39 5 39 10 0 6 47 10 120 10 97 0 120 3 120 14
0 11 20 15 85 18 79 3 85 2 86 -17 1 -17 2 -17 6 -2 5 20 20 23 26 5 2 -7 2
-3 0 10 -6 36 12 25 26 -15 43 -122 123 -257 206 -348 25 -27 45 -53 45 -57 0
-4 5 -8 11 -8 6 0 20 -10 31 -22 14 -16 18 -18 14 -6 -2 9 2 19 10 22 10 4 13
1 9 -7 -4 -6 2 -1 14 13 64 79 121 253 121 371 0 71 -1 71 88 10 71 -48 167
-148 215 -224 40 -62 77 -160 77 -204 0 -53 17 -56 19 -3 1 30 -3 50 -9 50 -6
0 -8 5 -5 11 8 13 -11 192 -34 324 -6 32 -7 63 -3 67 4 4 60 5 125 1 108 -6
117 -8 117 -26 0 -19 5 -20 120 -14 118 7 120 6 120 -15 0 -21 2 -21 120 -15
67 4 120 3 120 -2 0 -5 35 -12 78 -15 74 -7 162 -33 162 -48 0 -5 18 -8 40 -8
22 0 40 -4 40 -10 0 -6 33 -10 80 -10 62 0 80 -3 80 -14 0 -10 18 -16 63 -20
113 -10 125 -12 151 -30 23 -14 26 -14 26 -1 0 17 2 18 24 9 21 -8 20 -22 -1
-26 -14 -3 -10 -8 15 -21 34 -19 52 -16 52 9 0 8 5 14 10 14 6 0 10 -4 10 -10
0 -5 11 -12 25 -16 14 -3 25 -12 25 -20 0 -8 5 -14 10 -14 6 0 10 5 10 10 0 6
13 4 30 -5 17 -9 30 -11 30 -5 0 18 19 11 42 -15 25 -29 38 -32 38 -7 1 13 6
10 25 -13 24 -29 25 -30 25 -6 0 18 3 21 13 13 6 -6 15 -10 20 -11 26 0 124
-46 142 -66 24 -25 76 -55 98 -55 7 0 23 -10 35 -22 45 -49 72 -61 105 -49 27
11 39 5 56 -26 12 -23 41 -32 41 -13 0 6 13 10 29 10 21 0 30 -6 34 -21 5 -17
11 -20 30 -15 17 4 36 -2 62 -20 21 -14 44 -23 51 -20 7 3 19 0 26 -7 7 -7 34
-25 61 -39 47 -27 47 -27 47 -5 l1 22 19 -24 c11 -12 18 -27 15 -31 -3 -4 2
-13 10 -20 12 -10 15 -9 15 4 0 42 108 -2 138 -58 l17 -31 3 33 c3 31 5 32 47
32 45 0 69 -15 80 -50 3 -10 15 -22 26 -25 10 -4 19 -15 19 -26 0 -11 5 -17
10 -14 6 3 10 17 10 31 0 13 5 24 10 24 6 0 8 -11 4 -25 -3 -14 -2 -25 2 -25
10 0 47 53 43 60 -2 3 7 16 20 30 13 14 79 106 148 205 202 292 389 545 643
870 71 91 244 301 345 419 55 64 110 130 122 147 12 17 52 63 88 102 36 40
100 110 143 157 42 46 154 163 247 258 94 95 171 180 173 188 3 10 -6 14 -30
14 -47 0 -101 19 -198 70 -47 25 -89 47 -95 49 -5 2 -12 7 -15 10 -9 11 -69
51 -76 51 -4 0 -31 18 -60 40 -29 22 -58 40 -64 40 -5 0 -10 5 -10 10 0 6 -5
10 -11 10 -5 0 -24 13 -42 30 -18 16 -37 30 -43 30 -20 0 -24 28 -13 83 6 28
13 75 16 102 2 28 7 57 10 65 3 8 5 23 4 34 -4 29 9 67 19 61 13 -8 13 8 -1
22 -7 7 -7 52 0 149 33 444 22 1021 -34 1729 -9 105 -18 208 -20 230 -3 22 -7
78 -11 124 l-5 83 100 97 c56 53 101 100 101 105 0 4 26 38 58 75 119 139 272
362 262 382 -8 14 -23 196 -24 282 0 26 -5 47 -9 47 -5 0 -6 17 -3 38 5 28 4
34 -4 22 -9 -12 -10 -9 -5 13 4 19 2 26 -5 22 -10 -6 -13 22 -11 110 0 32 -1
36 -9 20 -8 -18 -9 -18 -8 5 0 14 -4 38 -11 54 -6 16 -9 31 -6 34 3 3 5 0 5
-6 0 -7 5 -12 10 -12 6 0 10 7 10 15 0 8 -9 15 -20 15 -15 0 -20 7 -20 28 0
15 -2 45 -5 67 -4 33 -3 35 5 15 8 -23 9 -22 7 10 -1 19 -6 34 -11 32 -9 -4
-46 46 -46 62 0 4 13 -6 29 -23 l29 -31 560 0 561 0 3 -42 4 -43 7 40 c4 22
13 56 19 75 6 19 11 51 10 70 0 28 1 31 8 15 8 -18 9 -18 9 5 1 15 -5 32 -11
39 -10 11 -10 13 0 7 14 -8 17 19 3 28 -4 3 -6 27 -3 54 3 37 0 52 -13 65 -9
10 -12 17 -5 17 12 0 11 15 -5 199 -3 29 -10 61 -17 69 -9 11 -9 14 -1 9 6 -4
14 -3 18 3 3 5 3 10 -2 10 -4 0 -7 43 -7 95 1 52 -1 95 -5 95 -3 0 -7 37 -8
81 -2 45 -1 80 2 78 2 -3 20 -117 39 -254z m774 108 c0 -10 5 -196 11 -413 6
-217 11 -434 11 -482 0 -81 2 -88 20 -88 17 0 20 7 20 40 l0 40 320 0 320 0 0
-40 0 -40 120 0 120 0 0 -40 0 -40 120 0 120 0 0 -40 0 -40 680 0 c673 0 680
0 680 -20 0 -17 7 -20 40 -20 33 0 40 -3 40 -20 0 -19 -7 -20 -200 -20 l-200
0 0 -40 0 -40 40 0 40 0 0 -40 0 -40 40 0 c22 0 40 -4 40 -10 0 -6 33 -10 80
-10 l80 0 0 -30 0 -30 200 0 c171 0 200 2 200 15 0 12 16 15 80 15 l80 0 0
-55 0 -55 40 0 c22 0 40 -4 40 -10 0 -5 18 -10 40 -10 22 0 40 5 40 10 0 6 18
10 40 10 l40 0 0 -40 0 -40 239 0 239 0 7 75 c3 41 4 79 0 85 -3 5 -2 10 4 10
7 0 11 -114 13 -332 1 -183 3 -424 4 -535 6 -422 24 -2073 24 -2168 0 -68 -3
-95 -10 -85 -8 12 -10 12 -10 1 0 -10 -3 -11 -14 -2 -7 6 -47 11 -92 10 -76 0
-88 3 -289 81 -254 98 -699 248 -965 325 -248 72 -549 146 -575 143 -14 -2 6
-20 70 -65 50 -34 131 -93 180 -132 50 -39 121 -94 158 -123 38 -30 65 -58 63
-65 -3 -7 0 -15 6 -19 7 -4 8 -3 4 4 -31 50 118 -74 435 -362 60 -54 106 -103
102 -109 -3 -6 -1 -7 5 -3 25 15 619 -604 952 -994 30 -35 71 -83 90 -105 35
-40 96 -115 219 -269 35 -45 67 -83 70 -86 18 -15 410 -541 492 -658 35 -51
106 -153 156 -225 51 -73 102 -148 113 -167 11 -19 72 -114 135 -210 105 -160
384 -616 428 -700 10 -19 36 -64 56 -100 109 -187 134 -234 314 -575 103 -196
349 -692 368 -742 8 -22 7 -23 -54 -23 -97 0 -135 9 -143 34 -17 55 -403 814
-532 1046 -13 25 -43 79 -65 120 -22 41 -48 86 -57 100 -9 14 -29 49 -43 78
-15 29 -48 84 -72 122 -25 39 -45 73 -45 76 0 6 -79 142 -125 214 -12 19 -59
96 -105 170 -113 184 -334 523 -456 700 -147 213 -446 627 -521 720 -7 8 -97
121 -200 250 -103 130 -200 249 -214 265 -66 75 -157 181 -187 219 -18 23 -38
46 -45 51 -7 6 -46 48 -87 95 -203 229 -548 581 -789 806 -47 44 -101 95 -122
114 -34 33 -101 92 -228 204 -31 27 -72 63 -91 80 -19 18 -96 81 -170 141 -74
59 -146 119 -160 131 l-25 23 -115 -15 c-474 -61 -1138 -211 -1786 -404 -72
-22 -138 -42 -146 -45 -12 -5 -18 5 -26 42 -6 26 -10 55 -10 63 0 8 -5 80 -11
159 -7 79 -10 155 -7 167 4 13 2 25 -4 29 -5 3 -9 34 -8 69 1 34 -2 68 -6 74
-4 7 -7 36 -6 65 2 28 0 59 -3 67 -3 8 -10 85 -15 170 -9 132 -8 163 5 212 9
32 19 56 22 54 3 -2 7 8 8 22 1 15 17 74 36 132 19 58 42 132 52 165 10 33 22
65 26 71 5 6 7 13 4 15 -2 3 2 23 9 44 10 27 22 42 38 46 23 7 23 7 1 8 -22 1
-23 4 -7 49 4 9 8 24 9 32 6 34 26 114 32 124 4 5 8 24 10 41 2 16 6 37 9 45
4 8 8 44 11 80 2 36 6 76 9 90 3 14 7 70 10 125 2 55 6 150 9 210 2 61 5 159
5 219 0 59 3 113 6 118 3 5 6 91 5 190 0 99 1 184 4 188 3 4 8 289 11 632 3
342 7 629 9 636 6 18 14 15 13 -5z m-13650 -187 c-4 -50 -10 -163 -13 -251
-16 -406 -16 -473 -6 -480 8 -4 6 -13 -4 -28 -10 -14 -15 -44 -14 -87 0 -69
17 -59 18 12 1 20 6 40 11 43 6 3 11 23 11 43 l1 37 8 -38 c10 -53 24 -61 17
-9 l-5 42 324 0 c317 0 324 0 324 20 0 19 7 20 200 20 193 0 200 1 200 20 0
19 7 20 200 20 l200 0 1 -122 c1 -77 4 -114 9 -98 4 14 8 89 9 167 1 131 0
142 -16 137 -15 -5 -15 -4 -3 4 8 6 18 8 22 6 5 -3 5 -202 1 -442 -13 -813 -9
-3328 5 -3532 7 -101 14 -185 15 -185 1 -1 389 7 862 16 473 10 927 18 1008
18 l148 1 -3 107 -3 108 -120 11 c-66 6 -142 14 -170 18 -27 3 -72 9 -100 12
-580 65 -1206 192 -1523 310 l-43 16 6 132 c3 72 7 169 10 216 2 47 7 153 10
235 2 83 8 201 11 264 l7 113 31 19 c75 46 135 29 170 -50 16 -33 24 -41 55
-45 750 -115 1435 -243 2094 -391 65 -15 121 -25 123 -22 7 6 64 345 64 377 0
26 -1 26 -232 77 -448 99 -911 187 -1403 267 -154 25 -302 50 -330 56 -27 5
-102 17 -165 26 l-115 17 -38 49 c-20 26 -43 48 -50 48 -6 0 -52 -13 -102 -28
l-90 -28 7 190 c4 105 20 481 34 836 15 355 27 674 28 710 l1 64 48 -3 47 -3
2 44 c1 24 4 6 8 -42 l6 -85 4 85 4 85 6 -85 c3 -47 8 151 10 440 1 289 6 505
10 480 l7 -45 1 47 c1 29 -3 48 -10 51 -8 3 -6 6 4 6 10 1 24 -13 34 -34 13
-29 14 -38 3 -51 -10 -12 -10 -15 2 -12 9 2 13 -5 12 -22 -1 -14 1 -19 4 -12
3 8 11 4 25 -13 11 -14 23 -24 25 -21 3 3 -9 23 -27 46 -17 22 -28 40 -23 40
4 0 22 -20 38 -45 32 -48 44 -54 240 -131 61 -24 109 -48 108 -53 -2 -6 3 -8
11 -5 13 5 40 -4 196 -63 36 -13 81 -29 100 -35 19 -5 44 -15 55 -21 11 -6 26
-12 33 -13 26 -5 188 -57 207 -67 11 -6 29 -13 40 -14 11 -2 74 -20 140 -40
290 -87 614 -163 859 -203 l125 -21 68 37 c37 19 71 40 74 46 9 14 89 20 89 6
0 -6 11 -8 26 -4 19 5 25 3 21 -6 -2 -7 -11 -12 -21 -10 -12 2 -16 -4 -15 -25
1 -17 3 -21 6 -10 5 19 7 20 126 17 73 -1 87 1 87 14 0 14 21 16 160 16 l160
0 0 25 0 25 640 0 640 0 0 -25 0 -25 439 0 c343 0 440 3 444 13 2 6 6 -75 9
-182 4 -133 10 -196 18 -201 11 -7 -2 -17 -32 -25 -5 -2 -9 -4 -10 -5 -8 -7
-132 -11 -497 -16 l-404 -6 -19 23 c-11 14 -17 18 -16 9 3 -12 -10 -15 -72
-14 -124 2 -302 13 -453 29 -78 9 -169 18 -202 20 -33 3 -71 8 -85 11 -14 4
-43 8 -65 9 -22 2 -65 6 -95 10 -30 4 -64 8 -75 10 -11 1 -20 4 -20 5 0 3 -66
11 -95 12 -14 0 -28 5 -32 11 -6 9 -8 8 -8 -1 0 -8 -5 -10 -12 -6 -7 4 -21 8
-32 9 -68 5 -135 19 -130 26 3 5 1 9 -5 9 -5 0 -11 -6 -14 -12 -4 -10 -7 -10
-18 0 -10 9 -10 12 0 12 7 0 9 5 6 10 -4 6 -12 4 -22 -5 -17 -18 -73 -12 -111
12 -13 8 -26 12 -30 9 -3 -3 1 -6 8 -6 7 0 11 -2 8 -5 -3 -4 -17 -3 -31 0 -19
5 -24 12 -22 27 3 12 1 17 -3 14 -4 -4 -7 -13 -7 -19 0 -15 -45 -16 -46 -2 0
6 -9 13 -20 17 -17 7 -19 15 -17 59 3 47 1 52 -19 54 -15 1 -20 -3 -17 -14 8
-36 31 -90 44 -106 14 -17 13 -18 -12 -11 l-28 6 0 -65 c0 -36 1 -65 3 -65 1
-1 20 -3 42 -6 22 -3 45 -12 51 -19 8 -11 13 -12 22 -3 7 7 12 8 12 2 0 -5 25
-10 56 -11 30 -1 66 -9 79 -17 15 -10 26 -12 30 -6 4 6 12 7 18 3 7 -4 22 -6
35 -4 13 1 25 -4 28 -14 6 -13 9 -14 15 -3 7 11 11 10 19 -2 7 -12 10 -12 10
-1 0 8 6 11 17 6 10 -3 40 -9 68 -12 57 -6 68 -10 59 -25 -4 -6 3 -5 16 2 12
6 33 9 47 5 14 -3 48 -8 77 -11 28 -4 58 -10 67 -15 9 -4 19 -6 22 -3 3 3 43
0 88 -7 46 -6 93 -12 104 -14 11 -1 20 -3 20 -4 0 -1 34 -4 75 -7 41 -2 81 -7
89 -9 7 -3 50 -8 95 -11 44 -3 88 -8 96 -11 15 -5 82 -11 190 -16 39 -1 54 -6
52 -15 -2 -10 2 -10 17 -2 20 10 153 14 163 5 7 -7 609 -7 640 -1 13 3 83 7
156 10 98 4 132 2 133 -7 0 -7 2 -34 4 -62 24 -373 19 -431 -51 -568 -8 -16
-14 -36 -14 -44 0 -9 -11 -31 -25 -49 -14 -18 -25 -35 -25 -38 0 -2 -16 -32
-36 -66 -29 -48 -34 -64 -25 -73 10 -9 16 -8 28 8 15 20 15 20 10 -3 -4 -18
-2 -22 11 -20 12 3 16 12 14 35 -3 28 1 32 33 43 20 7 39 9 42 6 4 -3 1 -6 -6
-6 -6 0 -24 -11 -39 -25 -15 -14 -21 -25 -15 -25 7 0 15 5 18 10 3 6 13 10 21
10 8 0 22 8 32 18 11 9 32 26 47 37 16 11 41 30 56 43 15 12 29 22 32 22 5 0
97 91 97 96 0 1 14 18 30 36 17 18 30 40 30 50 0 9 5 20 10 23 15 9 12 227 -5
330 -8 50 -15 111 -15 137 0 26 -5 50 -11 54 -8 4 -7 9 2 15 11 7 9 9 -6 9
-15 0 -17 3 -7 9 8 4 12 12 10 17 -5 14 38 17 62 4 15 -8 20 -8 18 1 -4 17
185 44 191 28 2 -8 6 -7 11 1 11 18 93 31 102 17 6 -9 8 -8 8 2 0 11 3 11 15
1 11 -9 15 -9 15 -1 0 7 5 9 10 6 6 -3 10 -1 10 6 0 6 8 9 20 6 11 -3 23 -1
26 4 3 6 12 5 22 -3 12 -10 14 -10 8 0 -5 8 1 12 21 14 34 1 44 3 63 11 8 4
35 9 60 13 25 3 59 8 75 10 17 3 40 6 53 7 12 1 22 6 22 11 0 4 7 6 15 2 8 -3
15 -1 15 5 0 7 14 10 35 7 19 -2 35 -1 35 2 0 4 6 7 13 7 6 0 20 4 29 8 17 7
20 -9 5 -32 -5 -7 -6 -17 -3 -22 3 -5 1 -34 -5 -66 -6 -31 -11 -66 -12 -76 -1
-10 -5 -19 -10 -19 -4 0 -6 -4 -2 -9 3 -6 -6 -88 -19 -183 -33 -225 -48 -343
-100 -746 l-43 -333 81 -38 c222 -106 505 -198 706 -231 36 -6 76 -12 90 -14
14 -3 40 -5 58 -5 18 -1 31 -5 27 -10 -5 -9 -28 -14 -130 -29 -7 -1 -9 -425
-7 -1254 2 -1147 4 -1254 19 -1265 30 -23 178 -74 308 -108 236 -60 320 -70
615 -70 260 0 283 2 513 41 25 5 37 3 37 -5 0 -7 -4 -10 -9 -7 -5 4 -22 1 -38
-6 -15 -6 -30 -12 -33 -13 -3 0 -30 -7 -60 -14 -30 -8 -60 -18 -67 -23 -7 -5
-16 -7 -21 -4 -5 3 -24 1 -43 -5 -30 -9 -57 -14 -134 -24 -11 -1 -20 -3 -20
-4 0 -6 -114 -11 -240 -12 -96 0 -132 -3 -115 -9 18 -7 11 -8 -25 -4 -27 3
-55 10 -61 15 -9 7 -32 9 -114 10 -24 0 -83 -10 -115 -20 -24 -7 -25 -9 -8
-10 12 -1 29 -4 39 -8 12 -4 15 -3 10 5 -5 8 2 12 21 12 15 0 37 2 48 5 20 5
63 -20 53 -30 -3 -3 -13 1 -21 10 -17 17 -42 21 -32 5 4 -6 -7 -10 -24 -10
-21 0 -31 -5 -31 -15 0 -11 11 -15 40 -15 29 0 40 -4 40 -15 0 -11 11 -15 40
-15 l40 0 -2 40 c-1 39 -11 52 -21 28 -4 -10 -8 -9 -16 2 -15 21 25 27 47 7 9
-8 24 -17 32 -21 8 -3 3 -4 -12 -1 -16 3 -28 3 -28 0 0 -3 18 -23 40 -45 33
-33 47 -40 80 -40 40 0 40 0 40 -39 l0 -39 -342 -6 c-189 -4 -800 -6 -1358 -4
l-1014 3 78 55 c130 92 249 184 296 229 l45 43 -217 -7 c-150 -4 -218 -3 -218
5 0 5 -4 10 -9 10 -6 0 -6 -13 0 -32 33 -106 -15 -221 -121 -291 -22 -16 -152
-17 -1606 -17 -869 0 -1642 3 -1717 7 l-137 6 0 29 c0 26 3 28 40 28 36 0 40
3 40 24 0 21 -6 25 -37 29 -21 2 -3 2 40 -1 52 -3 77 -1 77 7 0 6 -17 11 -40
11 -29 0 -40 4 -40 15 0 11 11 15 40 15 29 0 40 4 40 15 0 21 -76 21 -84 0 -3
-8 -10 -15 -16 -15 -6 0 -2 9 9 21 18 19 26 20 95 14 71 -7 76 -9 76 -31 0
-21 5 -24 40 -24 33 0 40 3 40 20 0 11 5 20 11 20 6 0 8 9 4 20 -11 34 6 45
26 19 10 -13 19 -19 19 -13 0 7 -29 41 -64 77 -35 36 -66 73 -69 81 -4 9 -14
16 -24 16 -20 0 -140 -118 -135 -132 1 -5 -1 -7 -6 -4 -12 7 -94 -78 -85 -88
4 -4 -1 -4 -11 0 -16 6 -17 3 -11 -17 4 -15 3 -19 -3 -11 -7 10 -11 10 -21 -2
-9 -11 -9 -15 1 -20 7 -3 2 -3 -11 0 -20 5 -23 3 -18 -10 4 -10 3 -15 -2 -12
-5 3 -21 -6 -37 -20 -27 -24 -27 -26 -6 -21 23 5 31 -8 10 -16 -7 -2 -10 -8
-6 -12 4 -4 14 -2 23 5 12 10 15 10 15 -4 0 -21 -58 -22 -66 -1 -4 8 -10 12
-15 9 -5 -3 -7 -9 -5 -13 3 -4 -3 -8 -12 -10 -51 -5 -2838 2 -2844 7 -3 4 -30
68 -59 142 -28 74 -67 173 -86 220 -19 47 -41 104 -50 128 -8 24 -17 41 -20
38 -8 -7 40 -742 52 -820 6 -32 12 -35 -80 38 -27 22 -52 41 -54 43 -2 1 -17
89 -33 195 -26 173 -30 234 -38 578 -9 357 -33 2144 -46 3481 l-6 574 46 495
c25 272 53 567 61 655 8 88 16 169 16 180 1 17 2 16 8 -4 3 -13 3 -65 -1 -115z
m8407 -646 c14 -28 14 -30 -2 -31 -15 0 -14 -2 3 -9 12 -5 24 -20 26 -34 4
-22 -2 -32 -32 -56 -38 -30 -56 -38 -46 -21 4 5 -3 7 -14 4 -28 -8 -35 -22 -8
-16 19 4 17 0 -12 -25 -19 -17 -39 -28 -44 -25 -5 4 -6 1 -2 -6 4 -6 0 -14 -8
-17 -9 -3 -16 -12 -16 -20 0 -8 -6 -14 -14 -14 -8 0 -22 -3 -32 -7 -12 -5 -15
-3 -9 6 4 8 -3 6 -18 -4 -14 -9 -40 -17 -59 -17 -18 0 -38 -4 -43 -9 -6 -4
-20 -8 -30 -8 -26 1 -68 -6 -80 -12 -6 -3 -19 -5 -30 -5 -11 1 -23 -3 -27 -9
-5 -6 -8 -5 -8 4 0 11 -3 11 -15 1 -8 -7 -15 -9 -15 -6 0 4 -9 2 -20 -4 -11
-6 -45 -12 -75 -13 -30 -2 -57 -6 -61 -10 -11 -11 -54 -8 -54 3 0 6 5 10 12
10 6 0 9 2 6 5 -10 10 -37 -7 -32 -20 4 -10 -2 -13 -23 -11 -15 1 -35 -1 -45
-6 -9 -4 -49 -10 -90 -13 -111 -9 -150 -13 -183 -20 -33 -7 -78 2 -71 13 6 11
-20 257 -33 307 -16 60 -14 105 4 105 11 0 15 -12 16 -42 1 -24 3 -35 6 -25 4
16 30 17 364 17 l359 0 0 25 0 26 204 -3 c112 -2 204 -1 204 2 -2 32 29 25 47
-10z m17819 -225 c-125 -19 -306 -60 -411 -95 -164 -54 -282 -108 -395 -182
-44 -30 -50 -20 -9 17 21 19 42 35 45 35 4 0 22 11 39 24 41 31 204 107 257
120 14 4 66 17 115 30 50 13 135 31 190 40 133 21 152 23 210 23 38 1 28 -2
-41 -12z m-28021 -88 l-17 -77 -198 0 -198 0 0 40 0 40 198 0 199 0 13 40 c20
61 22 42 3 -43z m28512 -37 c9 -25 22 -65 30 -90 22 -69 72 -277 86 -355 6
-38 15 -72 19 -75 15 -10 -10 -49 -40 -65 -18 -9 -34 -14 -36 -12 -7 7 -105
682 -104 712 1 11 21 -42 45 -115z m-29165 -60 c0 -18 7 -20 80 -20 73 0 80
-2 80 -20 0 -20 -7 -20 -360 -20 l-360 0 0 40 0 40 280 0 c273 0 280 0 280
-20z m19520 -20 l0 -40 -360 0 c-353 0 -360 0 -360 20 0 17 7 20 40 20 33 0
40 3 40 20 0 20 7 20 320 20 l320 0 0 -40z m-18874 -67 c7 -25 8 -25 15 -8 7
19 8 19 8 -1 1 -12 -6 -27 -14 -34 -8 -7 -15 -20 -14 -29 0 -12 2 -11 9 4 8
18 9 17 9 -8 1 -19 -3 -26 -11 -21 -8 5 -9 2 -3 -12 13 -31 18 -103 7 -117
-11 -13 -10 -37 2 -80 5 -17 4 -32 -3 -41 -9 -11 -9 -15 0 -18 14 -5 41 -74
43 -110 0 -14 4 -24 8 -22 6 4 12 -9 68 -171 17 -49 47 -135 67 -190 20 -55
42 -120 49 -145 7 -25 38 -126 69 -225 53 -167 99 -317 146 -475 21 -69 32
-145 49 -328 l11 -114 -35 -121 c-19 -67 -69 -245 -111 -396 l-77 -274 4 -469
c1 -257 2 -468 0 -468 -4 0 -182 96 -242 131 -69 40 -518 258 -655 319 -77 34
-158 70 -180 80 -83 37 -426 171 -590 230 l-170 61 -210 -5 c-394 -9 -953 -87
-1383 -192 -78 -19 -92 -14 -92 28 0 116 -126 1038 -177 1289 -3 17 -26 52
-50 79 -28 31 -42 54 -37 62 4 7 9 23 10 36 2 14 6 32 10 41 4 9 8 23 9 31 4
30 18 85 23 95 4 6 7 16 9 24 1 8 8 18 15 22 10 7 10 9 0 9 -13 0 -7 49 8 60
3 3 7 14 7 25 1 27 11 70 29 130 9 28 18 61 20 75 8 41 34 144 41 160 3 8 8
24 10 36 9 56 31 109 43 106 11 -2 11 0 1 11 -9 11 -9 25 1 61 7 25 15 46 19
46 4 0 5 9 2 20 -3 11 0 27 7 35 7 8 9 15 5 15 -4 0 -3 6 2 13 6 6 9 20 8 30
-2 9 0 17 4 17 4 0 7 8 8 18 0 9 8 42 17 72 17 57 21 74 32 125 3 17 9 35 13
40 7 12 8 18 10 51 1 16 5 23 12 18 7 -4 9 0 6 12 -4 11 0 30 8 44 11 20 14
21 15 7 0 -12 6 -17 17 -15 14 2 17 13 16 48 0 31 1 35 4 13 l4 -33 280 0 279
0 0 -25 c0 -22 4 -25 40 -25 29 0 40 -4 40 -15 0 -12 -16 -15 -80 -15 l-80 0
0 -40 0 -40 240 0 240 0 0 40 0 40 40 0 c38 0 40 2 40 30 0 28 2 30 40 30 36
0 40 3 40 25 0 23 4 25 40 25 36 0 40 -2 40 -25 0 -22 4 -25 40 -25 36 0 40 3
40 25 0 23 4 25 40 25 29 0 40 -4 40 -15 0 -13 38 -15 280 -15 l280 0 0 30 0
30 80 0 80 0 0 50 0 50 40 0 c29 0 40 4 40 15 0 12 16 15 80 15 64 0 80 -3 80
-15 0 -13 24 -15 160 -15 136 0 160 2 160 15 0 11 11 15 40 15 29 0 40 4 40
15 0 12 16 15 80 15 47 0 80 4 80 10 0 6 18 10 40 10 l40 0 0 40 c0 40 0 40
40 40 35 0 40 -3 46 -27z m-2166 -93 l0 -40 -40 0 -40 0 0 -40 0 -40 -406 0
-405 0 6 23 c5 17 4 19 -4 7 -9 -13 -11 -13 -11 2 0 9 5 20 11 23 6 4 8 13 5
21 -3 8 0 11 10 7 7 -3 14 -1 14 5 0 6 -6 12 -12 14 -7 3 -2 7 10 10 17 5 22
2 22 -14 0 -18 1 -18 16 -4 20 20 28 20 20 1 -5 -13 30 -15 279 -15 l285 0 0
40 0 40 120 0 120 0 0 -40z m22561 -40 l319 0 0 -40 0 -40 40 0 40 0 0 -40 0
-40 200 0 c193 0 200 -1 200 -20 0 -17 7 -20 40 -20 33 0 40 -3 40 -20 0 -20
7 -20 400 -20 l400 0 0 -40 0 -40 160 0 160 0 1 -42 c1 -42 1 -42 17 21 16 64
16 64 25 32 4 -18 6 -38 3 -44 -2 -7 -5 -1 -6 13 l-2 25 -8 -25 c-12 -37 -12
-100 1 -100 6 0 8 -8 5 -18 -4 -10 -8 -65 -11 -123 -3 -57 -7 -120 -9 -139 -2
-19 -7 -71 -10 -115 -3 -44 -13 -159 -21 -255 -8 -96 -16 -191 -17 -210 l-3
-35 -109 -5 -109 -5 -4 -30 c-8 -69 -40 -283 -88 -585 -22 -143 -54 -346 -90
-580 -9 -52 -20 -122 -25 -155 -5 -33 -21 -136 -35 -230 -15 -93 -30 -192 -36
-218 -5 -26 -9 -302 -9 -614 0 -507 -2 -565 -16 -559 -8 3 -43 10 -77 16 -34
5 -141 25 -237 44 -175 33 -175 33 -277 95 l-103 62 0 133 0 132 -61 99 c-34
55 -95 156 -137 225 -78 130 -179 293 -226 368 -22 36 -30 41 -42 32 -10 -9
-14 -9 -14 -1 0 8 -69 11 -239 11 -212 0 -240 -2 -245 -16 -4 -9 -9 -15 -11
-12 -3 2 -11 166 -20 364 -8 197 -27 616 -41 929 -14 314 -24 585 -22 602 2
18 1 34 -3 35 -4 2 -9 91 -11 198 -1 107 -6 197 -9 200 -4 3 -9 85 -12 182 -5
132 -3 178 6 181 8 2 6 9 -6 22 -16 15 -17 29 -11 113 5 70 4 93 -5 88 -19
-12 -12 19 8 33 15 11 17 19 10 38 -12 33 -11 40 5 46 10 4 13 -5 11 -34 -1
-21 -5 -42 -8 -46 -4 -3 -7 -16 -6 -27 0 -12 2 -16 5 -11 2 6 24 9 49 7 43 -4
45 -3 45 22 l0 26 240 0 240 0 0 40 0 40 -280 0 c-276 0 -280 0 -280 21 0 11
-4 18 -9 15 -10 -7 -21 17 -20 42 0 14 2 13 9 -3 8 -18 9 -18 10 5 1 14 4 19
7 13 4 -10 78 -13 324 -13z m-24478 -280 c-2 -28 -1 -31 6 -15 7 15 10 16 10
4 1 -9 -2 -19 -6 -22 -3 -4 -8 -19 -9 -34 -2 -14 -8 -29 -14 -33 -6 -4 -10
-11 -9 -16 4 -21 -2 -34 -16 -34 -8 0 -15 5 -15 10 0 6 6 10 13 10 8 0 8 3 -2
9 -11 7 -9 14 13 34 27 25 27 26 7 36 -35 19 -61 14 -61 -12 0 -13 6 -32 14
-42 13 -19 11 -49 -3 -40 -4 2 -7 -20 -7 -50 1 -30 4 -55 9 -55 4 0 7 5 7 10
0 6 5 10 11 10 6 0 7 -5 2 -12 -4 -7 -8 -15 -8 -18 -3 -23 -31 -122 -43 -150
-8 -19 -14 -36 -13 -37 0 -2 1 -11 1 -20 0 -15 -2 -14 -15 3 -14 18 -14 17 -4
-8 10 -23 9 -31 -4 -46 -10 -10 -17 -23 -17 -28 0 -5 5 -2 11 6 8 11 9 9 3
-10 -4 -14 -11 -36 -17 -50 -5 -14 -11 -32 -12 -40 -5 -23 -47 -164 -51 -169
-7 -8 -63 22 -58 31 4 6 -2 8 -15 3 -13 -4 -31 0 -49 12 -15 11 -65 34 -112
52 -47 18 -87 36 -90 40 -3 4 -33 15 -68 26 -43 13 -59 21 -50 27 9 6 6 7 -8
3 -12 -3 -49 7 -90 24 -38 16 -96 36 -129 45 -33 9 -85 25 -115 36 -60 22
-256 82 -358 109 -35 9 -60 20 -56 24 4 4 -3 6 -17 5 -32 -2 -180 33 -174 42
2 4 -8 7 -23 7 -43 1 -95 13 -121 30 -14 9 -20 10 -16 3 5 -9 1 -10 -14 -6
-22 6 -35 9 -85 21 -23 5 -27 8 -15 16 11 7 9 10 -11 16 l-25 7 24 6 c14 3 27
12 29 20 5 13 3 13 -11 2 -11 -9 -31 -12 -59 -8 -27 3 -34 2 -18 -2 30 -9 34
-38 5 -36 -11 1 -42 7 -70 13 -27 6 -61 14 -75 16 -14 3 -36 8 -50 11 -13 3
-47 7 -74 10 -27 2 -54 8 -60 13 -7 6 -43 14 -81 18 l-70 8 55 6 c30 4 69 10
85 14 21 5 27 4 20 -3 -5 -6 -21 -12 -35 -15 -18 -3 -15 -5 13 -6 40 -1 62 23
36 40 -8 5 88 9 239 9 l252 0 0 40 0 40 720 0 720 0 0 40 0 40 163 -2 162 -3
-2 -35z m-3603 -320 c0 -29 -4 -40 -15 -40 -8 0 -15 -4 -15 -9 0 -5 6 -9 13
-8 46 1 50 -5 12 -23 -22 -10 -47 -19 -57 -19 -9 -1 -18 -6 -20 -13 -3 -8 -30
-12 -79 -13 -69 0 -74 -2 -77 -22 -3 -17 2 -23 15 -23 15 0 16 2 3 10 -8 5
-11 12 -7 17 5 4 12 1 16 -6 5 -8 14 -10 21 -6 9 5 9 10 1 14 -6 4 5 7 24 7
32 0 31 -1 -33 -35 -51 -27 -78 -36 -112 -35 -25 1 -91 2 -147 3 l-103 1 0 40
0 40 40 0 40 0 0 40 0 40 40 0 40 0 0 40 0 40 200 0 200 0 0 -40z m33440 0 l0
-40 40 0 40 0 0 -40 0 -40 40 0 40 0 0 -40 0 -40 -240 0 c-208 0 -240 -2 -240
-15 0 -14 43 -15 365 -13 287 2 365 0 365 -9 0 -7 7 -13 15 -13 8 0 15 7 15
16 0 8 -4 12 -10 9 -6 -3 -7 1 -3 10 5 13 7 14 14 3 7 -11 9 -10 9 1 0 8 3 11
7 8 8 -9 34 13 28 23 -3 5 5 6 17 3 35 -8 106 -41 113 -53 7 -12 -12 -40 -27
-40 -6 0 -5 7 2 15 10 12 10 18 0 30 -7 8 -18 15 -24 14 -7 0 -6 -2 2 -6 6 -2
12 -13 12 -24 0 -10 -6 -19 -12 -19 -7 0 -5 -5 5 -11 29 -17 57 -2 57 31 0 16
-6 31 -12 33 -8 3 -6 6 5 6 9 1 17 -6 17 -14 0 -13 33 -15 240 -15 l240 0 0
-22 c0 -21 2 -20 15 6 12 23 13 36 5 59 -5 16 -6 34 -2 41 4 6 9 -4 12 -24 3
-19 11 -34 17 -33 13 3 7 -22 -10 -44 -5 -7 -7 -19 -4 -26 3 -8 -3 -33 -14
-56 -10 -23 -14 -39 -8 -35 7 4 9 0 6 -12 -3 -11 -9 -37 -13 -59 -4 -22 -12
-49 -18 -60 -8 -14 -13 -200 -16 -600 -3 -378 -8 -579 -15 -578 -5 0 -291 7
-635 13 l-625 13 -60 24 c-33 14 -78 33 -100 43 -22 10 -87 37 -145 60 -58 23
-113 46 -123 52 -11 5 -58 24 -105 43 -151 58 -202 84 -206 108 -5 27 -48 309
-81 527 -13 91 -31 210 -40 265 -9 55 -15 114 -13 132 2 17 1 30 -3 27 -8 -4
-19 58 -22 126 -1 25 -5 50 -9 55 -11 18 -18 125 -8 125 6 0 10 -21 11 -47 1
-27 5 -59 10 -73 8 -23 8 -22 4 6 -5 42 5 104 18 104 6 0 8 -25 4 -67 -4 -43
-3 -61 3 -48 5 11 9 48 9 83 l1 62 320 0 320 0 0 40 0 40 200 0 200 0 0 -40z
m-33820 -220 c-8 -5 -15 -23 -16 -39 -1 -28 0 -29 15 -14 12 12 13 17 3 21
-16 5 -5 22 14 22 8 0 13 -4 10 -9 -4 -5 -1 -11 5 -13 6 -2 -13 -22 -42 -45
-77 -58 -142 -125 -186 -191 -31 -46 -43 -79 -62 -169 -13 -62 -27 -110 -32
-107 -5 3 -6 -1 -3 -9 3 -8 -2 -41 -11 -73 -9 -33 -18 -70 -21 -84 -10 -51
-78 -340 -247 -1055 -52 -220 -114 -481 -137 -580 -89 -378 -158 -656 -163
-661 -3 -3 -48 4 -99 16 -316 73 -396 92 -417 103 -15 8 -33 34 -49 72 -14 33
-45 106 -69 163 -30 70 -48 131 -57 195 -8 50 -24 153 -36 227 -19 123 -31
202 -61 390 -5 36 -21 133 -34 215 -14 83 -25 159 -25 170 -1 14 -37 47 -113
103 -62 46 -170 127 -240 180 -127 96 -158 119 -319 237 l-82 60 -101 5 -100
5 -25 -30 c-14 -16 -59 -68 -100 -115 -76 -87 -122 -140 -188 -219 -20 -24
-56 -64 -80 -90 -23 -25 -44 -55 -47 -66 -2 -11 -13 -139 -25 -285 -30 -381
-86 -1091 -112 -1407 l-22 -273 -57 0 -57 0 -16 108 c-9 59 -25 177 -36 262
-47 350 -54 395 -70 397 -8 1 -36 4 -61 8 l-47 6 -6 62 c-27 277 -134 1441
-140 1527 -2 36 -7 72 -10 80 -6 20 -19 239 -17 310 1 40 -1 51 -9 40 -8 -12
-10 -10 -10 11 0 14 7 34 15 45 8 10 15 40 15 67 l0 47 200 0 200 0 0 40 0 40
40 0 40 0 0 -80 0 -80 200 0 200 0 0 80 0 80 120 0 120 0 0 40 0 40 200 0 200
0 0 25 0 25 320 0 320 0 0 55 0 55 -480 0 c-313 0 -480 3 -480 10 0 7 180 10
520 10 340 0 520 -3 520 -10 0 -6 60 -10 160 -10 l160 0 0 25 0 25 599 0 c389
0 602 4 606 10 3 6 12 10 18 10 7 0 6 -4 -3 -10z m-4389 -339 c-7 -13 -6 -23
5 -37 8 -11 14 -14 13 -9 -3 24 2 45 10 45 6 0 6 -14 0 -35 -15 -53 -45 -116
-52 -108 -4 3 -7 -1 -7 -10 0 -9 -7 -17 -16 -17 -12 0 -15 -6 -10 -25 9 -34
-7 -38 -74 -21 -30 8 -57 13 -59 11 -2 -2 9 -7 24 -11 l28 -7 -29 -14 c-26
-12 -27 -13 -4 -8 14 3 36 8 49 12 15 4 22 2 18 -4 -7 -11 -74 -28 -91 -24 -5
1 -12 -3 -17 -10 -4 -7 -31 -12 -61 -13 -47 0 -54 -3 -51 -17 4 -12 -17 -32
-71 -68 -41 -28 -78 -51 -81 -51 -3 0 -11 -5 -18 -10 -58 -50 -74 -59 -85 -55
-7 3 -10 0 -7 -5 3 -6 0 -10 -9 -10 -8 0 -16 -4 -18 -8 -3 -9 -93 -72 -103
-72 -6 0 -20 -11 -51 -38 -8 -8 -21 -11 -29 -8 -10 3 -12 0 -8 -11 5 -13 2
-15 -11 -10 -9 4 -15 3 -12 -1 10 -16 -13 -35 -44 -35 -17 0 -26 -3 -20 -7 6
-4 -26 -32 -74 -64 -50 -33 -90 -54 -97 -50 -7 4 -9 3 -6 -2 10 -16 -9 -36
-36 -37 -14 -1 -23 -5 -21 -9 2 -3 -35 -32 -83 -65 -49 -32 -93 -65 -100 -73
-7 -8 -26 -51 -42 -95 -17 -44 -49 -125 -72 -180 -22 -55 -60 -149 -84 -210
-24 -60 -60 -150 -80 -200 -21 -49 -41 -108 -45 -130 -53 -282 -146 -782 -157
-842 l-6 -32 -134 -3 -135 -3 -65 -150 c-67 -152 -116 -263 -134 -301 -9 -17
-18 -20 -67 -17 -31 2 -318 12 -637 24 -319 11 -580 21 -580 22 0 1 -14 31
-30 67 -57 124 -147 192 -291 221 l-65 13 -68 91 -68 91 -439 18 c-242 10
-470 19 -509 21 -38 2 -136 7 -217 10 l-148 7 0 32 c0 17 5 123 10 236 5 113
12 266 15 340 4 74 11 194 16 265 17 216 17 226 23 344 5 109 14 139 38 125 4
-3 8 0 8 6 0 7 -8 9 -20 5 -23 -7 -28 13 -5 21 11 5 12 11 5 24 -14 26 -12 40
5 40 10 0 15 10 14 33 l-1 32 -8 -30 c-12 -47 -15 5 -4 80 1 11 3 31 3 45 1
19 4 21 10 11 5 -8 8 -19 7 -25 -2 -6 -1 -7 2 -3 2 4 11 0 19 -10 13 -17 13
-17 4 3 -6 12 -9 23 -7 25 2 2 7 21 10 42 5 33 3 40 -14 44 -11 3 -20 10 -20
15 0 5 4 7 8 4 4 -2 8 16 9 42 0 26 5 70 11 97 9 49 10 49 11 12 0 -21 -4 -47
-9 -57 -7 -12 -7 -27 0 -45 7 -19 7 -24 -2 -19 -6 4 -9 3 -6 -2 4 -5 329 -8
787 -6 l781 2 0 80 c0 64 3 80 15 80 11 0 15 11 15 40 l0 40 730 0 730 0 0 80
0 80 160 0 160 0 0 40 0 40 200 0 200 0 0 40 0 40 40 0 40 0 0 80 0 80 640 0
640 0 0 40 0 40 40 0 c39 0 40 -1 40 -34 0 -19 5 -38 11 -42 8 -4 9 0 4 15 -4
15 -3 21 6 19 7 -2 15 6 17 16 3 14 0 17 -12 13 -13 -5 -16 1 -16 33 0 29 4
40 15 40 12 0 13 -4 6 -19z m44899 -530 c0 -5 -5 -11 -12 -13 -8 -3 -8 -13 -3
-34 l9 -29 4 32 c2 17 9 37 17 43 12 10 13 5 8 -27 -3 -21 -10 -41 -16 -44 -6
-4 -5 -14 2 -25 10 -18 11 -18 17 4 l6 22 649 0 649 0 0 -40 c0 -29 4 -40 15
-40 12 0 15 -16 15 -80 l0 -80 655 0 655 0 1 -32 2 -33 7 35 c5 24 8 28 9 12
0 -13 6 -20 11 -17 6 4 10 -7 10 -27 0 -23 3 -29 9 -19 11 17 3 -70 -10 -114
-8 -26 -8 -24 -5 14 3 30 2 40 -5 30 -13 -21 -12 -92 3 -83 6 4 8 3 5 -3 -6
-10 -26 -121 -32 -183 -2 -20 -9 -65 -15 -100 -16 -94 -41 -250 -45 -290 -3
-19 -11 -84 -20 -145 -8 -60 -31 -228 -50 -373 -19 -145 -37 -267 -40 -272 -3
-5 -18 -11 -33 -15 -26 -5 -32 -17 -80 -158 -69 -203 -142 -410 -145 -413 -2
-2 -289 -12 -637 -23 -349 -11 -669 -22 -710 -24 l-76 -3 -48 255 c-26 141
-50 266 -53 279 -5 21 -9 22 -124 22 l-118 0 -11 43 c-6 23 -17 62 -25 87 -7
25 -25 92 -39 150 -15 58 -31 119 -37 137 -5 17 -23 80 -38 140 -16 59 -49
185 -75 278 -25 94 -47 179 -49 190 -2 11 -7 27 -10 35 -3 8 -20 71 -37 140
-17 69 -35 134 -40 145 -8 18 -22 78 -21 90 0 2 -6 23 -14 45 -11 30 -11 39
-2 33 9 -5 9 -3 1 8 -17 22 -34 79 -23 79 5 0 9 -5 9 -12 0 -6 2 -9 5 -7 2 3
0 18 -4 35 -7 21 -10 23 -11 9 -1 -16 -4 -14 -14 10 -23 53 -67 246 -61 266 4
10 3 19 -2 19 -4 0 -14 14 -22 31 -12 27 -12 33 0 40 18 11 39 11 39 0z
m-54129 -955 c9 -9 -3 -86 -13 -80 -5 3 -8 -8 -6 -28 4 -46 -12 -158 -23 -158
-4 0 -6 -7 -3 -15 4 -8 1 -15 -5 -15 -6 0 -11 8 -11 18 0 9 -4 13 -8 7 -10
-14 -92 -19 -92 -6 0 7 -24 11 -57 11 -32 1 -69 7 -83 15 -29 17 -52 20 -30 4
11 -8 8 -9 -15 -4 -31 8 -36 8 -143 20 -35 3 -76 11 -90 16 -24 9 -94 19 -257
35 -62 6 -111 23 -67 24 19 0 22 5 22 40 l0 40 -40 0 c-25 0 -40 -5 -41 -12
-1 -7 -2 -25 -2 -39 l-1 -27 -29 22 c-15 11 -23 22 -18 24 22 7 10 22 -12 17
-15 -4 -28 -1 -36 9 -8 10 -9 16 -3 16 6 0 13 -3 15 -7 4 -7 41 -9 77 -4 6 0
10 19 10 41 l0 40 478 0 c263 0 481 -2 483 -4z m19964 -304 c-6 -5 -46 -24
-90 -43 -44 -19 -82 -37 -85 -40 -3 -4 -29 -17 -57 -30 -29 -12 -53 -26 -53
-31 0 -4 -6 -8 -14 -8 -16 0 -104 -46 -127 -66 -8 -8 -23 -14 -32 -14 -9 0
-17 -3 -17 -7 0 -11 -61 -45 -68 -38 -6 6 28 34 43 35 6 0 15 10 20 22 13 27
38 38 28 11 -7 -17 -6 -17 12 0 15 16 16 20 4 29 -10 7 -7 7 10 3 13 -4 21 -3
18 2 -3 5 15 22 41 38 26 16 56 38 66 47 11 10 26 18 33 18 12 0 17 12 14 37
-1 7 21 14 56 19 32 3 78 10 103 14 64 11 106 11 95 2z m14336 -1118 c90 -12
179 -30 179 -36 0 -5 18 -8 40 -8 22 0 40 -4 40 -10 0 -6 -55 -10 -142 -11
-79 0 -183 -3 -233 -5 l-90 -4 30 20 c17 11 33 20 38 20 4 0 28 13 54 29 31
19 50 26 54 19 4 -6 17 -12 30 -14z m-4280 -842 c-38 -74 -54 -242 -29 -313 6
-19 22 -43 35 -54 28 -25 29 -36 4 -52 -46 -29 -371 -45 -371 -19 0 6 13 43
29 81 96 236 224 387 334 394 16 1 16 -1 -2 -37z m-18925 -1525 c5 -4 0 -5
-10 -1 -15 6 -17 4 -11 -6 6 -10 4 -12 -7 -7 -10 3 -19 -3 -27 -19 -9 -20 -16
-24 -34 -18 -19 6 -20 5 -9 -9 8 -9 9 -18 3 -21 -5 -4 -12 -2 -16 4 -3 5 -12
10 -18 10 -8 0 -8 -3 1 -9 12 -7 12 -12 0 -30 -7 -12 -21 -24 -30 -27 -10 -3
-34 -24 -54 -47 -20 -23 -32 -33 -27 -23 6 11 8 38 6 60 -5 39 -4 40 10 21 9
-11 11 -22 6 -23 -5 -2 -7 -8 -3 -13 3 -5 12 -3 20 5 16 16 19 30 4 21 -5 -3
-16 8 -25 24 -17 34 -20 55 -5 46 6 -3 10 3 10 14 0 18 8 20 83 24 l82 3 -87
2 c-75 2 -87 0 -92 -15 -3 -11 -4 -9 -3 6 2 24 3 24 95 22 52 -1 92 2 89 6 -7
11 39 11 49 0z m1684 -56 c-19 -16 -39 -27 -43 -24 -5 3 0 11 10 19 10 7 13
14 6 14 -6 0 -15 -5 -18 -10 -4 -7 -13 -7 -26 0 -16 9 -23 6 -43 -17 -13 -15
-21 -34 -18 -41 4 -11 7 -10 15 4 10 20 36 44 48 44 17 0 16 -28 -2 -43 -15
-14 -19 -14 -19 -3 0 8 7 17 15 19 11 4 11 5 -2 3 -9 0 -20 -11 -23 -23 -6
-25 -125 -117 -140 -108 -5 3 -7 0 -4 -9 5 -14 -31 -43 -48 -38 -5 1 -7 -4 -5
-10 1 -8 -6 -12 -16 -10 -9 2 -16 -1 -15 -6 5 -17 -89 -82 -109 -76 -14 4 -15
3 -4 -4 10 -7 3 -16 -30 -39 -44 -30 -112 -43 -124 -24 -3 6 -12 8 -20 4 -22
-8 -62 4 -62 19 -1 21 -8 43 -15 48 -4 4 -9 22 -10 42 -2 20 -6 34 -10 31 -5
-2 -8 3 -8 11 0 8 -13 36 -30 62 -16 26 -27 51 -23 57 3 6 2 7 -4 4 -5 -4 -24
9 -41 28 -16 19 -26 35 -22 35 5 0 12 -5 15 -10 4 -6 12 -4 21 5 13 13 64 15
338 15 319 0 323 0 342 22 17 19 17 21 2 15 -12 -4 -18 -1 -18 8 0 12 17 15
87 15 l87 0 -34 -29z m10584 -1223 l-5 -33 17 33 c20 39 30 40 39 5 3 -16 12
-35 19 -43 7 -8 23 -40 36 -70 12 -30 35 -81 50 -112 16 -32 27 -58 25 -58 -2
0 7 -21 20 -47 46 -93 148 -388 142 -413 -2 -8 -10 6 -18 33 -10 36 -18 47
-34 47 -11 0 -36 10 -55 22 -19 12 -44 27 -55 33 -11 6 -21 20 -21 30 -1 11
-2 26 -3 33 -1 6 -9 12 -18 12 -21 0 -58 77 -41 82 12 4 1 48 -12 48 -5 0 -10
-7 -12 -16 -3 -14 -6 -14 -27 3 -21 17 -24 28 -22 72 1 30 -2 51 -9 51 -6 0
-11 33 -12 83 -1 45 -3 63 -5 40 -2 -24 -8 -43 -14 -43 -5 0 -9 52 -9 120 0
99 3 120 15 120 11 0 13 -8 9 -32z m26391 -303 c116 -3 269 -8 340 -11 72 -2
198 -7 280 -9 83 -3 204 -7 270 -10 66 -2 210 -7 320 -10 1765 -59 1896 -64
1530 -60 -203 3 -965 10 -1692 17 l-1323 12 -26 -25 c-32 -29 -63 -94 -64
-130 0 -25 42 -90 278 -429 64 -92 84 -127 55 -94 -49 55 -390 489 -402 512
-8 15 -15 56 -15 92 -1 113 56 164 174 155 36 -2 160 -7 275 -10z m3764 -622
c267 -270 494 -501 504 -513 14 -17 16 -25 6 -36 -7 -9 -8 -14 -1 -14 6 0 12
6 14 12 5 14 4 15 68 -58 l35 -39 -32 29 c-33 30 -47 22 -17 -9 16 -15 16 -16
-2 -13 -16 2 -19 -3 -18 -29 1 -18 -1 -33 -3 -33 -15 0 -93 92 -87 101 4 8 3
9 -4 5 -7 -4 -36 17 -71 53 -33 34 -62 61 -64 61 -3 0 -59 53 -125 118 -66 64
-247 241 -402 392 l-283 275 -116 40 c-109 37 -116 42 -113 64 2 14 16 40 30
59 l26 34 85 -4 85 -5 485 -490z m-2542 -230 c-113 -241 -229 -487 -257 -548
-153 -323 -189 -407 -184 -423 4 -12 3 -13 -3 -4 -7 9 -19 -8 -41 -59 -18 -39
-30 -75 -27 -79 3 -5 1 -11 -5 -15 -5 -3 -10 -15 -10 -26 0 -11 -4 -18 -9 -15
-5 3 -8 -5 -7 -19 0 -14 2 -25 4 -25 5 0 26 55 26 69 1 18 26 27 26 9 0 -7 -6
-25 -14 -40 -12 -23 -12 -27 0 -32 8 -3 11 -12 7 -22 -4 -11 -2 -15 4 -11 7 5
9 0 6 -13 -3 -11 -9 -20 -14 -20 -5 0 -12 -15 -17 -32 -5 -18 -15 -32 -21 -30
-9 2 -10 -5 -6 -19 6 -17 4 -21 -8 -16 -11 4 -14 2 -10 -9 3 -8 -11 -41 -31
-75 -20 -33 -36 -65 -36 -70 0 -5 -4 -9 -9 -9 -5 0 -13 -9 -16 -20 -8 -27
-164 -275 -227 -362 -27 -37 -79 -130 -116 -208 l-68 -141 -27 29 -28 29 569
1144 c312 629 608 1226 657 1326 49 100 91 180 93 178 2 -2 -88 -201 -201
-442z m-7032 252 c-345 -41 -940 -59 -1440 -44 -591 17 -628 24 -185 32 343 7
1195 19 1590 24 l145 1 -110 -13z m-3636 -1348 c73 -176 207 -422 310 -567 22
-30 42 -66 45 -80 3 -14 3 -19 0 -12 -3 6 -10 10 -15 7 -5 -4 -6 1 -3 9 7 19
-30 30 -81 23 -69 -9 -200 113 -270 253 -42 85 -58 155 -57 255 0 79 19 195
31 195 3 0 21 -37 40 -83z m-11958 -737 c166 -31 299 -159 299 -287 0 -75 -53
-162 -125 -205 -18 -11 -141 76 -217 153 -44 44 -80 93 -103 140 -40 79 -61
174 -44 196 14 16 113 17 190 3z"/>
<path d="M39890 10520 c-411 -329 -754 -653 -1185 -1120 -450 -487 -1005
-1240 -1422 -1930 -221 -366 -393 -681 -602 -1105 -211 -426 -296 -612 -466
-1020 -153 -368 -425 -1113 -407 -1116 4 -1 45 -1 92 1 65 1 101 -3 150 -20
93 -31 202 -86 270 -136 32 -23 93 -55 135 -70 l77 -27 121 119 c540 529 1076
1027 1452 1349 44 38 98 85 120 104 22 20 65 57 95 82 30 26 98 83 150 127 52
44 97 79 99 77 1 -2 -15 -59 -37 -127 -166 -507 -300 -1042 -387 -1540 -6 -35
-23 -31 310 -68 593 -65 1053 -99 1790 -132 371 -17 1784 -17 2170 0 648 28
1331 74 1347 90 5 5 -7 132 -26 283 -137 1074 -383 2255 -623 2994 -48 149
-129 324 -162 355 -4 3 -25 30 -49 61 -80 106 -219 205 -357 255 -34 12 -104
30 -156 39 -52 9 -101 19 -109 22 -33 11 324 93 408 93 124 0 435 -87 677
-189 288 -122 672 -342 879 -504 27 -21 55 -36 63 -33 8 3 12 2 9 -3 -9 -14
30 -42 50 -35 14 4 15 3 5 -4 -15 -11 2 -27 19 -17 5 3 8 0 5 -7 -2 -7 21 -32
53 -56 32 -23 71 -54 86 -67 16 -14 32 -25 35 -25 6 0 -290 292 -395 390 -32
30 -120 111 -194 181 -74 70 -180 166 -235 214 -55 48 -116 102 -135 119 -19
17 -82 72 -140 121 -58 50 -107 93 -110 96 -17 19 -586 484 -739 604 -96 75
-610 458 -731 545 -50 36 -103 74 -118 86 -89 68 -764 518 -937 624 -111 68
-135 83 -225 142 -155 100 -522 308 -546 308 -6 0 -84 -59 -174 -130z"/>
<path d="M45217 6553 c108 -118 331 -374 468 -537 127 -150 174 -200 182 -193
7 8 -15 42 -49 77 -13 14 -51 57 -83 95 -175 205 -585 655 -598 655 -5 0 31
-44 80 -97z"/>
<path d="M34460 5781 c0 -15 76 -121 119 -166 38 -40 46 -44 107 -50 79 -9
130 -2 164 23 32 24 36 61 15 139 l-17 63 -194 0 c-107 0 -194 -4 -194 -9z"/>
<path d="M35201 5723 c0 -75 47 -209 71 -207 9 1 103 57 209 125 l193 124 -75
6 c-40 4 -147 7 -236 8 l-163 1 1 -57z"/>
<path d="M35005 5528 c-49 -28 -102 -112 -131 -207 -26 -85 -22 -86 84 -16 53
36 113 74 132 85 83 48 153 96 153 105 -2 33 -191 60 -238 33z"/>
<path d="M34780 5203 c-153 -54 -360 -155 -360 -175 0 -13 78 -9 116 7 19 8
61 32 92 53 31 21 83 55 115 75 31 21 57 39 57 42 0 3 -1 5 -2 4 -2 0 -10 -3
-18 -6z"/>
<path d="M33132 4407 c-27 -34 -56 -110 -73 -191 -18 -90 -24 -156 -14 -156 3
0 52 31 108 69 56 37 142 94 191 126 67 42 86 59 75 66 -8 5 -66 25 -129 44
-63 20 -122 40 -132 45 -11 6 -20 5 -26 -3z"/>
<path d="M40924 12918 c-16 -67 -33 -126 -39 -132 -5 -6 -11 -26 -12 -45 -1
-19 -6 -44 -11 -55 -6 -12 -16 -49 -22 -83 -9 -46 -17 -63 -29 -64 -11 0 -12
-2 -3 -6 10 -4 9 -9 -5 -20 -10 -8 -12 -11 -4 -7 11 5 12 0 8 -22 -6 -32 -53
-219 -62 -250 -6 -17 -5 -17 4 -2 34 51 224 788 209 804 -3 2 -18 -50 -34
-118z"/>
</g>
</svg>
