<?xml version="1.0" standalone="no"?>
<!DOCTYPE svg PUBLIC "-//W3C//DTD SVG 20010904//EN"
 "http://www.w3.org/TR/2001/REC-SVG-20010904/DTD/svg10.dtd">
<svg version="1.0" xmlns="http://www.w3.org/2000/svg"
 width="1920.000000pt" height="1080.000000pt" viewBox="0 0 1920.000000 1080.000000"
 preserveAspectRatio="xMidYMid meet">

<g transform="translate(0.000000,1080.000000) scale(0.100000,-0.100000)"
fill="#000000" stroke="none">
<path d="M11345 8323 c-36 -10 -68 -37 -81 -70 -10 -23 -14 -84 -14 -219 l0
-186 -116 -204 c-63 -112 -117 -204 -119 -204 -1 0 -58 97 -125 215 -107 188
-124 213 -135 198 -6 -10 -139 -242 -294 -515 l-282 -497 35 -46 c108 -141 55
-355 -106 -425 -78 -34 -176 -33 -244 2 -129 68 -193 213 -149 339 l16 43
-285 285 c-321 321 -293 305 -337 191 -31 -82 -42 -156 -36 -250 3 -46 1 -77
-3 -70 -5 8 -28 51 -53 94 l-45 80 47 45 c77 75 88 170 29 257 -26 39 -107 84
-152 84 -87 0 -175 -62 -195 -137 -6 -21 -44 -96 -85 -168 -41 -71 -73 -131
-71 -133 2 -2 13 2 26 8 12 7 43 10 71 8 69 -7 109 -47 115 -115 11 -114 -90
-186 -192 -137 -40 19 -62 50 -73 101 l-8 37 -37 -66 -37 -66 20 -45 c73 -165
20 -386 -120 -497 l-36 -29 -298 298 -297 297 50 54 51 54 -57 101 c-31 55
-64 113 -74 128 l-17 28 -29 -53 c-52 -94 -426 -752 -438 -770 -10 -16 -15
-12 -41 34 -39 70 -38 68 -20 68 13 0 16 14 16 80 0 73 -2 80 -20 80 -18 0
-20 -7 -20 -60 0 -33 -4 -60 -9 -60 -5 0 -59 90 -121 200 l-113 200 -33 -57
-33 -58 56 -49 c30 -27 65 -66 78 -86 66 -104 73 -260 17 -373 -28 -57 -107
-147 -129 -147 -5 0 -125 117 -268 260 -143 143 -263 260 -266 260 -4 0 -17
-24 -29 -52 -28 -65 -36 -164 -21 -240 15 -71 74 -164 134 -210 l45 -34 -19
-36 c-12 -23 -28 -38 -46 -43 -34 -8 -72 -41 -84 -74 -9 -22 -16 -14 -80 99
-38 68 -71 125 -73 127 -2 3 -70 -112 -151 -254 -80 -142 -153 -262 -162 -268
-8 -5 -35 -25 -59 -43 l-44 -33 0 101 0 101 -42 -3 -43 -3 -3 -57 -3 -58 -59
0 -60 0 0 49 c0 41 4 51 20 56 34 11 70 63 70 102 0 50 -54 103 -105 103 -52
0 -105 -53 -105 -105 0 -29 8 -45 34 -71 19 -19 41 -34 50 -34 13 0 16 -12 16
-65 l0 -65 70 0 70 0 0 -39 c0 -34 -3 -39 -29 -44 -35 -7 -87 -50 -107 -89 -9
-16 -15 -54 -15 -83 l0 -53 -37 -7 c-71 -13 -119 -51 -146 -116 l-15 -35 87 4
87 4 47 46 47 45 40 -34 c21 -19 40 -39 40 -45 2 -20 37 -44 64 -44 l27 0 0
89 0 89 34 21 c42 26 109 27 156 3 43 -23 83 -93 78 -139 -4 -30 -1 -33 22
-33 15 0 36 10 49 23 19 21 20 25 6 37 -22 19 -18 35 16 64 38 32 61 33 93 2
30 -27 33 -51 11 -73 -26 -26 5 -51 64 -51 47 -1 49 1 80 48 41 63 100 111
185 151 59 27 83 33 166 37 166 8 276 -39 408 -174 39 -40 71 -64 84 -64 13 0
42 20 70 47 l47 46 43 -47 43 -48 603 -2 c331 0 602 2 602 6 0 4 17 17 38 29
22 13 45 38 57 62 26 54 63 79 122 84 86 8 163 -58 163 -138 0 -44 -13 -40
136 -40 l82 0 45 48 46 48 25 -24 25 -24 20 24 20 24 48 -48 49 -48 684 0
c656 0 684 1 704 19 12 11 29 22 38 25 10 3 24 21 31 40 30 71 112 111 185 89
32 -10 41 -20 68 -79 30 -64 43 -105 48 -156 2 -12 6 -32 10 -44 7 -21 4 -23
-33 -23 -44 0 -46 -2 -31 -46 9 -26 15 -30 55 -32 25 -1 45 3 45 9 0 6 6 6 18
0 19 -10 66 -9 94 3 9 4 21 21 27 37 l10 29 -83 0 -83 0 -6 45 c-4 25 -9 56
-13 70 -6 24 -5 25 21 15 14 -5 35 -10 45 -10 29 0 87 57 101 98 6 20 15 41
19 45 8 9 70 -64 70 -82 0 -6 5 -11 10 -11 6 0 10 -9 10 -20 0 -24 -29 -23
552 -21 262 1 409 -3 413 -9 4 -6 67 -10 158 -10 l151 0 -73 74 -73 73 32 7
c80 15 166 -4 234 -52 30 -21 46 -27 61 -21 58 23 159 0 190 -44 12 -18 25
-19 143 -19 l130 1 46 48 46 48 43 -47 c24 -27 46 -48 50 -48 3 0 26 21 51 48
l45 47 29 -28 c32 -31 72 -31 72 0 0 47 81 113 138 113 12 0 22 3 22 8 0 4
-45 85 -99 181 l-99 173 -16 -31 c-32 -60 -132 -104 -200 -87 -23 6 -24 9 -14
36 8 24 7 35 -6 56 -22 33 -61 47 -88 33 -28 -15 -31 -8 -31 62 1 56 0 59 -14
40 -33 -48 -141 -68 -201 -37 -68 35 -102 113 -82 184 l10 37 -162 162 -162
163 39 40 c123 126 325 128 449 4 63 -64 90 -133 91 -234 0 -73 3 -90 22 -114
25 -32 37 -82 31 -127 l-5 -30 24 25 c38 41 69 58 122 65 l49 6 -375 660
c-206 363 -455 801 -554 974 l-178 314 0 155 c0 123 -3 159 -16 178 -34 53
-23 52 -570 58 -280 3 -519 2 -530 -1z m1024 -1491 c14 -10 32 -36 39 -58 33
-99 -65 -190 -162 -150 -65 27 -93 104 -61 167 35 67 123 87 184 41z m-438
-45 c95 -46 187 -159 204 -250 l7 -37 -56 0 c-53 0 -56 -1 -56 -25 0 -24 3
-25 60 -25 70 0 71 -3 45 -105 -19 -72 -63 -143 -117 -189 l-40 -34 -264 264
c-289 290 -277 270 -212 330 51 46 63 54 125 80 50 21 71 24 153 22 80 -3 105
-8 151 -31z m-1140 -99 c76 -35 129 -85 170 -160 33 -61 34 -67 34 -173 0 -97
-3 -115 -24 -155 -54 -103 -126 -164 -230 -194 -64 -19 -120 -20 -191 -5 -54
12 -57 14 -35 43 20 26 19 99 0 137 -32 62 -124 88 -189 54 -15 -8 -30 -15
-31 -15 -2 0 -9 26 -15 57 -17 79 -6 165 29 238 46 93 112 154 204 187 77 27
204 21 278 -14z m-1898 -224 c103 -35 184 -145 194 -266 5 -53 11 -69 38 -99
63 -70 71 -164 21 -239 -35 -53 -90 -80 -162 -80 -138 0 -228 129 -183 260
l12 32 -139 139 -138 139 44 45 c77 78 204 106 313 69z m-1105 -135 c95 -47
138 -110 148 -216 17 -186 -134 -327 -321 -298 -42 6 -46 9 -40 28 26 81 3
138 -63 158 -33 9 -45 9 -71 -4 -30 -15 -31 -15 -39 11 -4 15 -7 54 -6 87 3
197 214 323 392 234z m3583 -197 c76 -40 114 -102 115 -191 1 -48 7 -75 23
-101 25 -41 27 -80 6 -120 -14 -27 -42 -50 -61 -50 -3 0 -4 15 -2 33 3 17 0
50 -6 72 l-12 40 -11 -45 c-6 -25 -9 -60 -6 -77 5 -30 3 -33 -21 -33 -16 0
-41 13 -64 34 -35 32 -37 38 -35 89 l2 54 -110 109 c-60 60 -109 114 -109 120
0 6 10 20 23 31 75 69 177 83 268 35z m1087 -13 c78 -38 130 -138 118 -226
-16 -120 -103 -196 -227 -196 -72 0 -81 5 -67 44 23 66 -45 134 -111 111 -39
-14 -43 -7 -42 70 2 176 168 275 329 197z m-1172 -561 c12 -11 26 -37 32 -57
l9 -38 -73 5 c-40 2 -86 0 -103 -6 -30 -11 -31 -10 -25 16 23 99 99 138 160
80z m-76 -168 c0 -5 -6 -10 -14 -10 -8 0 -18 5 -21 10 -3 6 3 10 14 10 12 0
21 -4 21 -10z m70 -40 c0 -5 -4 -10 -10 -10 -5 0 -10 5 -10 10 0 6 5 10 10 10
6 0 10 -4 10 -10z m-5089 -84 c-9 -11 -10 -20 -1 -35 6 -12 8 -21 6 -21 -3 0
-10 9 -16 21 -9 15 -8 24 1 35 6 8 14 14 16 14 3 0 0 -6 -6 -14z"/>
<path d="M11180 5500 c0 -5 5 -10 11 -10 5 0 7 5 4 10 -3 6 -8 10 -11 10 -2 0
-4 -4 -4 -10z"/>
<path d="M9495 8085 c-44 -27 -41 -30 14 -14 27 8 44 7 66 -1 27 -11 28 -13
10 -20 -19 -7 -18 -7 5 -20 17 -9 25 -10 28 -1 2 6 10 11 19 11 22 0 84 -51
96 -79 l11 -26 3 26 c6 42 -14 79 -52 95 -19 8 -34 18 -34 22 3 18 -2 22 -19
13 -12 -6 -23 -5 -37 5 -28 21 -65 17 -110 -11z"/>
<path d="M6034 5299 c-10 -17 13 -36 27 -22 12 12 4 33 -11 33 -5 0 -12 -5
-16 -11z m26 -9 c0 -5 -4 -10 -10 -10 -5 0 -10 5 -10 10 0 6 5 10 10 10 6 0
10 -4 10 -10z"/>
<path d="M6087 5290 c-4 -15 0 -20 16 -20 17 0 19 2 8 9 -7 5 -10 14 -7 20 4
6 3 11 -2 11 -5 0 -12 -9 -15 -20z"/>
<path d="M6068 5243 c6 -2 18 -2 25 0 6 3 1 5 -13 5 -14 0 -19 -2 -12 -5z"/>
<path d="M11428 5020 c-2 -123 0 -160 10 -160 9 0 12 39 12 160 0 212 -18 212
-22 0z"/>
<path d="M11736 5004 c-3 -9 -13 -14 -20 -11 -8 3 -17 -1 -20 -10 -4 -9 -13
-13 -22 -9 -15 6 -15 4 -3 -10 14 -17 11 -20 -37 -50 -16 -9 -16 -14 -5 -42
16 -38 38 -48 61 -27 16 14 18 14 23 0 4 -8 16 -15 27 -15 11 0 23 7 27 15 5
14 7 14 23 0 22 -20 45 -11 60 26 14 32 1 59 -27 59 -9 0 -13 6 -9 15 3 8 2
15 -3 15 -4 0 -7 10 -7 23 1 15 -4 21 -16 19 -9 -1 -19 2 -23 8 -9 15 -22 12
-29 -6z m50 -45 c1 -40 -51 -53 -81 -19 -17 18 -16 19 9 26 14 3 26 10 26 15
0 14 45 -7 46 -22z"/>
<path d="M5324 4607 c-4 -12 317 -802 360 -884 26 -51 79 -56 108 -10 8 12 68
151 133 310 66 158 122 287 125 287 10 0 83 -186 142 -362 36 -106 65 -178 72
-178 8 0 76 -153 161 -357 81 -197 159 -379 173 -405 27 -52 76 -82 114 -73
22 6 36 -21 262 -502 131 -279 245 -516 254 -527 63 -71 191 -54 239 30 12 22
96 199 188 394 91 195 170 358 174 363 4 4 22 -28 40 -72 40 -96 54 -117 93
-137 41 -21 94 -11 128 26 16 17 71 136 140 304 63 152 117 276 120 276 3 0
84 -183 180 -407 112 -263 183 -418 200 -435 33 -32 89 -45 129 -28 50 20 77
61 141 210 33 80 64 148 68 152 4 4 77 -162 162 -369 85 -207 168 -398 183
-425 80 -141 271 -147 357 -12 15 25 108 238 206 475 98 236 181 429 184 429
3 0 81 -162 174 -359 93 -198 178 -369 190 -379 35 -32 62 -42 118 -42 40 0
62 6 90 25 38 25 44 38 206 385 66 140 69 145 103 151 80 13 122 57 164 172
10 26 21 47 25 47 3 0 37 -78 75 -172 37 -95 77 -188 88 -207 56 -94 182 -95
240 -2 11 19 53 115 92 214 40 99 74 173 78 166 112 -277 203 -479 225 -502
55 -58 121 -72 187 -41 51 24 78 66 149 238 36 86 69 163 73 171 6 10 23 -15
60 -89 47 -94 56 -106 95 -125 51 -24 86 -26 131 -7 46 19 66 45 119 159 26
56 55 105 65 109 10 3 -213 7 -496 7 l-513 1 6 32 c16 80 101 159 189 178 l52
10 0 93 c0 78 4 100 26 147 33 70 95 132 167 167 50 24 69 28 147 28 78 0 97
-4 146 -28 67 -32 142 -109 171 -175 29 -65 35 -164 13 -237 -16 -56 -16 -59
2 -68 10 -5 47 -39 82 -75 l63 -65 19 24 c20 26 54 105 220 506 l104 253 36 0
c24 0 42 7 56 22 12 13 60 118 108 233 48 116 90 214 92 219 3 5 12 -6 19 -23
11 -25 19 -32 36 -29 26 3 35 29 187 509 71 224 76 247 63 267 -10 15 -25 22
-47 22 -28 0 -34 -5 -50 -40 -10 -22 -23 -40 -29 -40 -6 0 -24 18 -39 40 l-28
40 -91 0 -91 0 -31 -36 -32 -36 -19 36 c-27 50 -55 48 -85 -6 -41 -75 -38 -74
-99 -15 l-56 55 -189 5 -189 5 -36 -34 -37 -33 -19 35 c-16 30 -23 35 -49 32
-25 -2 -36 -12 -55 -47 l-24 -44 -15 28 -14 28 -17 -22 -16 -21 -38 38 -38 39
-142 -5 c-136 -4 -143 -5 -169 -30 l-28 -26 -28 27 c-38 37 -75 35 -111 -5
l-28 -32 -30 34 c-30 33 -30 34 -133 36 l-102 3 -30 -32 -29 -32 -27 33 c-35
41 -62 41 -100 -2 -26 -30 -32 -33 -43 -20 -10 13 -14 12 -30 -2 -17 -15 -20
-14 -49 20 -26 29 -37 35 -59 31 -14 -3 -98 -5 -186 -4 -281 4 -305 2 -326
-17 -19 -17 -20 -17 -35 4 -21 31 -53 27 -90 -9 l-33 -32 -26 32 c-26 30 -29
31 -108 31 -68 0 -84 -3 -103 -21 l-23 -21 -13 21 c-19 31 -99 30 -121 -1
l-15 -23 -25 24 c-25 23 -26 23 -233 19 l-207 -5 -28 -34 -28 -34 -39 38 c-38
38 -38 38 -57 17 -18 -20 -19 -20 -39 -1 -25 24 -83 25 -108 3 -15 -13 -20
-13 -34 -1 -13 11 -66 15 -224 17 l-208 4 -27 -36 -27 -35 -30 35 c-41 46 -68
44 -112 -8 l-36 -43 -38 43 c-34 39 -41 42 -84 42 -45 0 -49 -2 -90 -56 l-43
-55 -41 47 -42 48 -27 -32 c-15 -18 -30 -32 -34 -32 -4 0 -20 18 -37 39 l-29
40 -163 0 -163 1 -30 -35 -31 -35 -27 35 c-14 19 -29 34 -32 35 -3 0 -27 -27
-54 -61 -45 -57 -48 -59 -66 -43 -16 14 -21 15 -35 4 -10 -9 -18 -10 -22 -4
-4 6 -20 27 -36 48 l-30 38 -41 -48 -41 -47 -45 56 -44 57 -67 0 -67 0 -48
-60 -48 -61 -37 43 c-21 24 -38 46 -38 51 0 18 -20 4 -51 -37 l-34 -43 -59 53
-59 54 -91 0 -90 0 -64 -62 c-61 -60 -64 -62 -78 -43 -14 19 -14 19 -30 -4
l-16 -23 -20 33 c-11 18 -28 48 -38 67 l-19 34 -31 -56 c-18 -31 -34 -56 -37
-56 -3 0 -34 25 -68 55 l-63 55 -130 0 -129 0 -86 -80 -85 -80 -19 24 c-10 13
-30 44 -43 70 -14 25 -28 46 -31 46 -3 0 -16 -22 -29 -50 -13 -27 -26 -50 -30
-50 -4 0 -28 27 -54 60 -46 59 -48 60 -96 60 -47 0 -49 -1 -100 -65 -28 -36
-55 -65 -60 -65 -4 0 -23 29 -41 65 -34 65 -45 76 -55 52z"/>
</g>
</svg>
